<svg xmlns="http://www.w3.org/2000/svg" width="20" height="20" viewBox="0 0 20 24">
  <path fill="currentColor" d="M17.428 6.572a1.094 1.094 0 1 0-1.547 1.545l.001.001A8.024 8.024 0 1 1 5.03 7.67l.012-.01l.515 2.586a1.094 1.094 0 0 0 1.98.398l.002-.004l3.577-5.354v-.004l.006-.01c.017-.027.034-.053.049-.082l.007-.014c.014-.027.027-.055.04-.086l.005-.015c.011-.028.021-.056.03-.086c0-.007 0-.014.005-.02a.903.903 0 0 0 .021-.086c0-.013 0-.027.006-.04s.008-.044.009-.066c0-.036.005-.072.005-.109v-.012c0-.032 0-.064-.005-.096l-.011-.075c0-.01 0-.02-.004-.03a.942.942 0 0 0-.024-.095v-.009a.99.99 0 0 0-.034-.096v-.004a1.38 1.38 0 0 0-.041-.086l-.004-.009a1.166 1.166 0 0 0-.045-.076l-.01-.016l-.046-.062l-.018-.024c-.015-.019-.033-.037-.05-.055l-.021-.024q-.038-.038-.078-.071l-.015-.011a.872.872 0 0 0-.071-.053L5.46.184a1.094 1.094 0 0 0-1.68 1.13l-.001-.007l.791 3.978C1.803 7.14.006 10.255.006 13.79c0 5.637 4.57 10.207 10.207 10.207S20.42 19.427 20.42 13.79c0-2.818-1.142-5.37-2.989-7.217z"/>
</svg>