<svg xmlns="http://www.w3.org/2000/svg" width="200" height="200" viewBox="0 0 128 128">
  <linearGradient id="deviconSafari0" x1="295.835" x2="295.835" y1="274.049" y2="272.933"
    gradientTransform="matrix(112 0 0 -112 -33069.5 30695)" gradientUnits="userSpaceOnUse">
    <stop offset="0" stop-color="#19D7FF" />
    <stop offset="1" stop-color="#1E64F0" />
  </linearGradient>
  <circle cx="64" cy="64" r="62.5" fill="url(#deviconSafari0)" />
  <path fill="#fff"
    d="M63.5 7.6v9.2h1V7.6Zm-3.902.26l-.996.08l.4 5l.996-.08zm8.804 0l-.4 5l.996.08l.4-5zm-13.709.554l-.986.172l1.6 9.101l.986-.173zm18.614 0l-1.6 9.1l.986.174l1.6-9.102zM49.883 9.47l-.965.261l1.299 4.801l.965-.261Zm28.234 0l-1.299 4.8l.965.262l1.299-4.8zm-32.846 1.363l-.943.336l3.102 8.7l.941-.337zm37.458 0l-3.1 8.7l.941.335l3.102-8.699zm4.62 1.852l-2.2 4.601l.902.43l2.201-4.6zm-46.695.007l-.908.416l2.1 4.6l.908-.414zm-4.32 2.26l-.867.498l4.6 8l.867-.498zm55.332 0l-4.6 8l.868.498l4.6-8zm-59.559 2.56l-.816.577l2.9 4.101l.817-.578zm63.786 0l-2.9 4.1l.816.578l2.9-4.101zm-67.61 2.968l-.765.644l5.9 7l.764-.644zm71.434 0l-5.899 7l.764.644l5.9-7zm-75.168 3.263l-.697.717l3.6 3.5l.696-.717zm-3.33 3.574l-.639.768l7.1 5.9l.64-.77zm85.562 0l-7.101 5.899l.64.77l7.1-5.901zM18.184 31.19l-.569.823l4.201 2.9l.569-.824zm91.632 0l-4.2 2.899l.568.824l4.2-2.9zM15.55 35.367l-.498.867l8 4.6l.498-.867zm96.902 0l-8 4.6l.498.867l8-4.6zm-99.14 4.28l-.422.906l4.5 2.1l.422-.907zm101.378 0l-4.5 2.1l.422.905l4.5-2.1zM11.375 44.13l-.35.937l8.6 3.202l.35-.938zm105.25 0l-8.6 3.201l.35.938l8.6-3.202zM9.828 48.816l-.256.967l4.9 1.301l.257-.967zm108.344 0l-4.9 1.301l.255.967l4.9-1.3zM8.688 53.607l-.174.985l9.1 1.601l.173-.986zm110.624 0l-9.1 1.6l.175.986l9.1-1.601zM8.05 58.402l-.098.996l5 .5l.098-.996zm111.902 0l-5 .5l.098.996l5-.5zM7.801 63.4v1H17v-1zM111 63.4v1h9.2v-1zm-98.049 4.403l-5 .5l.098.994l5-.5zm102.098 0l-.098.994l5 .5l.098-.994zm-97.436 3.705l-9.1 1.6l.175.984l9.1-1.6zm92.774 0l-.174.984l9.1 1.6l.173-.985zm-95.914 5.11l-4.9 1.298l.255.967l4.9-1.299zm99.054 0l-.256.966l4.9 1.299l.257-.967zm-93.902 2.814l-8.6 3.199l.35.937l8.6-3.199zm88.75 0l-.35.937l8.6 3.2l.35-.938zm-90.986 5.615l-4.5 2.1l.422.906l4.5-2.1zm93.222 0l-.422.906l4.5 2.1l.422-.907zm-87.56 1.92l-8 4.6l.498.867l8-4.6zm81.898 0l-.498.867l8 4.6l.498-.868zm-83.133 5.822l-4.2 2.9l.568.823l4.2-2.9zm84.368 0l-.569.822l4.201 2.9l.569-.822zm-78.504.926l-7.1 5.9l.639.77l7.101-5.9zm72.64 0l-.64.77l7.101 5.9l.639-.77zm-66.902 5.863l-5.9 7l.765.645l5.899-7zm61.164 0l-.764.645l5.899 7l.765-.645zm5.967.164l-.697.717l3.6 3.5l.696-.717zm-60.48 4.606l-4.6 7.9l.863.504l4.6-7.9zm47.863 0l-.864.504l4.6 7.9l.863-.504zm-53.74 1.164l-2.901 4.1l.816.577l2.9-4.101zm59.617 0l-.817.576l2.9 4.101l.817-.578zm-46.38 2.32l-3.1 8.7l.942.335l3.1-8.699zm33.141 0l-.941.336l3.1 8.7l.943-.337zm-25.263 2.182l-1.6 9.1l.986.173l1.6-9.1zm17.386 0l-.986.174l1.6 9.1l.986-.175zm-30.742.066l-2.201 4.5l.898.44l2.202-4.5zm44.098 0l-.899.44l2.202 4.5l.898-.44Zm-22.549.82v9.2h1v-9.2zm-13.283 2.272l-1.301 4.9l.967.256l1.3-4.9zm27.566 0l-.967.256l1.301 4.9l.967-.256zm-18.781 1.687l-.4 5l.996.08l.4-5zm9.996 0l-.996.08l.4 5l.996-.08z"
    color="#000" />
  <path fill="red" d="m106.7 21l-48 37.7l5.2 5.2z" />
  <path fill="#D01414" d="m63.9 63.9l6 6L106.7 21z" />
  <path fill="#fff" d="m58.7 58.7l-37.7 48l42.9-42.8z" />
  <path fill="#ACACAC" d="m21 106.7l48.9-36.8l-6-6z" />
</svg>