<svg xmlns="http://www.w3.org/2000/svg" width="20" height="20" viewBox="0 0 20 24">
  <path fill="currentColor" d="m15.853 5.286l.791-3.978a1.094 1.094 0 0 0-1.688-1.12l.004-.002l-5.359 3.581a.727.727 0 0 0-.071.053l-.015.011q-.041.034-.078.071l-.027.025l-.05.055l-.018.024c-.015.021-.032.04-.046.062l-.01.016a.95.95 0 0 0-.045.076l-.004.009a1.118 1.118 0 0 0-.041.086v.004a.918.918 0 0 0-.034.096v.009a1.466 1.466 0 0 0-.024.095c0 .01 0 .02-.004.03c0 .025-.009.05-.011.075l-.005.096v.012c0 .036 0 .073.005.109c0 .022.006.044.009.066s0 .027.006.04a1.778 1.778 0 0 0 .026.106c.009.029.02.058.03.086l.005.015l.04.086l.007.014c.015.028.032.055.049.082l.006.01v.004l3.577 5.354a1.094 1.094 0 0 0 1.982-.387l.001-.007l.515-2.586a8.018 8.018 0 1 1-10.84.457A1.094 1.094 0 0 0 2.99 6.576l.001-.001a10.18 10.18 0 0 0-2.992 7.222c0 5.64 4.572 10.212 10.212 10.212s10.212-4.572 10.212-10.212c0-3.537-1.798-6.654-4.53-8.487l-.037-.023z"/>
</svg>