<?xml version="1.0" ?><svg xmlns="http://www.w3.org/2000/svg" width="90.593781mm" height="124.75785mm" viewBox="0 0 90.593781 124.75785">
    <path d="m 4261.3247,4874.3609 c 12.8105,-49.1061 68.5998,-44.3574 84.0868,-19.0997 12.5267,20.4296 -1.7057,49.0937 2.6774,69.0905 2.7161,35.1485 -51.6842,47.326 -70.9602,27.7197 -16.2989,-18.0814 -19.0933,-59.8173 -15.804,-77.7105 z" fill="#fff" paint-order="fill markers stroke" transform="translate(96.894372,-219.51941) translate(-4357.0043,-4617.1417)"/>
    <path d="m 4299.8318,4955.3066 c -2.9638,-2.0934 -1.243,-3.4201 3.4152,-2.6333 2.8041,0.474 3.6668,1.0031 3.4552,2.1197 -0.385,2.0317 -4.3061,2.3247 -6.8704,0.5136 z m 13.3569,-2.0417 c 0,-0.4209 2.6574,-1.8946 5.9053,-3.2749 3.5493,-1.5084 7.4722,-4.077 9.8334,-6.438 5.3882,-5.3882 7.4959,-5.1799 4.5832,0.4526 -0.7085,1.3701 -2.8356,3.5431 -4.7272,4.8292 -5.4349,3.6956 -15.5947,6.5825 -15.5947,4.4311 z m -26.6298,-1.8857 c -3.5766,-1.4854 -12.637,-11.2873 -15.0275,-16.2573 -4.5341,-9.427 -7.6378,-25.9335 -5.1638,-27.4626 0.4951,-0.306 0.9002,0.031 0.9002,0.7465 0,1.7938 3.9472,15.2592 6.3883,21.7924 2.2528,6.0302 10.7559,15.7415 16.0217,18.2988 1.6782,0.8146 3.0076,1.8867 2.9543,2.382 -0.1276,1.1851 -3.7131,1.4804 -6.0732,0.5002 z m 12.2174,-2.6921 c -4.3394,-1.3201 -7.6806,-3.5103 -11.9244,-7.8166 -7.1951,-7.3009 -5.2787,-7.7218 3.636,-0.7991 5.2864,4.1054 12.2415,6.6435 18.4238,6.7236 2.7037,0.035 3.3201,1.3166 1.0518,2.1869 -1.9025,0.73 -8.3788,0.5594 -11.1872,-0.2948 z m 16.2133,-4.1302 c 0,-1.9281 4.2256,-3.7685 5.5687,-2.4257 0.757,0.757 0.7225,1.3742 -0.1353,2.4068 -1.51,1.8193 -5.4342,1.8328 -5.4342,0.025 z m -18.6836,-4.8625 c -4.8188,-2.2458 -5.1025,-3.8793 -0.45,-2.5947 8.7203,2.4082 19.8447,-1.4388 26.4963,-9.1626 4.0521,-4.7055 6.1432,-5.6835 6.1432,-2.8742 0,2.9926 -5.4058,9.8735 -10.1478,12.9166 -4.0697,2.6118 -5.5335,3.0271 -11.4408,3.2466 -5.2499,0.194 -7.6352,-0.1506 -10.6009,-1.5317 z m 28.1711,-0.025 c -0.2879,-0.4656 0.645,-2.1876 2.073,-3.8268 5.3602,-6.1531 6.0187,-8.3609 5.7663,-19.3383 -0.2195,-9.5622 0.5934,-14.7055 2.3249,-14.7055 0.7654,0 2.2346,13.92 2.0434,19.3588 -0.1328,3.7751 -3.5464,12.936 -6.1238,16.4324 -2.0838,2.8272 -5.0046,3.8257 -6.0838,2.0799 z m 12.1221,-5.5758 c 0,-1.5223 2.765,-9.0098 3.8589,-10.4501 0.466,-0.6135 1.2064,-0.8935 1.6457,-0.622 1.4763,0.9125 0.8152,5.4983 -1.2276,8.5133 -2.1729,3.2071 -4.277,4.4658 -4.277,2.5588 z m -50.7874,-3.2569 c -5.4985,-8.4729 -7.2336,-21.5519 -4.4858,-33.8128 2.6483,-11.8173 10.5067,-25.8393 14.4815,-25.8393 1.7083,0 1.4658,0.9533 -1.2631,4.9683 -9.812,14.4371 -12.3532,29.1668 -7.863,45.5802 3.3857,12.376 3.405,12.4802 2.3142,12.4802 -0.546,0 -1.9788,-1.5195 -3.1838,-3.3766 z m 9.6805,0.6267 c -1.5618,-1.0005 -3.4686,-3.1448 -4.2374,-4.765 -1.8709,-3.9426 -3.1414,-12.4529 -2.2279,-14.9225 0.8218,-2.2215 2.5518,-1.7353 2.5518,0.7172 0,3.8382 3.0426,11.288 5.9035,14.4544 4.9978,5.5319 3.8086,8.2306 -1.99,4.5159 z m 9.2926,0.3486 c -1.2466,-1.2465 -0.496,-2.0452 2.7763,-2.9538 4.4723,-1.2422 5.6275,-1.1892 5.6275,0.2583 0,2.1317 -6.7898,4.3096 -8.4038,2.6955 z m -26.329,-1.2854 c -0.5321,-0.6959 -2.0941,-3.8994 -3.4711,-7.1184 -4.3398,-10.1451 -4.0774,-27.5586 0.5293,-35.1336 2.8788,-4.7339 3.914,-2.2479 2.2007,5.285 -2.0292,8.9214 -1.8666,20.702 0.3981,28.8751 1.9627,7.0818 2.1029,10.3944 0.343,8.0919 z m 37.1156,-3.3032 c -0.2322,-0.378 0.5345,-2.7077 1.7065,-5.1774 1.7915,-3.7751 1.9974,-5.0641 1.2933,-8.0919 -1.4613,-6.2831 -0.9868,-10.5863 1.9334,-17.5366 2.4824,-5.9082 2.7517,-7.3653 2.2848,-12.3636 -0.5773,-6.1835 0.3316,-7.2639 2.5317,-3.0094 2.0566,3.977 1.6726,10.5026 -0.9835,16.7023 -3.2989,7.7014 -3.441,8.89 -1.7725,14.8362 1.3667,4.8714 1.3734,5.6125 0.076,8.7169 -2.2371,5.3543 -5.6527,8.216 -7.0698,5.9235 z m -13.0695,-3.2226 c -1.2655,-1.5247 -0.4252,-2.3933 2.315,-2.3933 1.6848,0 2.5153,-0.892 3.9533,-4.2468 1.402,-3.2708 2.0121,-3.9431 2.6554,-2.9262 2.5162,3.9785 -0.8869,10.7746 -5.3954,10.7746 -1.3889,0 -2.9769,-0.5436 -3.5283,-1.2083 z m -6.4209,-4.6442 c -1.1835,-1.4259 -0.9477,-16.9108 0.2759,-18.1343 1.3224,-1.3224 1.9714,0.9648 2.0365,7.1761 0.038,3.5509 0.3745,7.7729 0.7499,9.3824 0.5304,2.2747 0.3902,2.9262 -0.6297,2.9262 -0.7215,0 -1.8162,-0.6077 -2.4326,-1.3504 z m 30.2597,-0.074 c -0.9928,-2.5873 -0.622,-8.6552 0.5062,-8.2793 1.3859,0.462 3.5143,6.6864 2.8647,8.3789 -0.6722,1.7519 -2.6833,1.6924 -3.3709,-0.1 z m 14.2124,-1.796 c -0.3202,-1.2763 -0.3721,-6.4422 -0.1147,-11.4803 0.458,-8.9882 1.8437,-15.0128 3.4527,-15.0128 0.8961,0 1.1396,25.1112 0.2657,27.3889 -0.8465,2.2062 -2.9561,1.6817 -3.6031,-0.8958 z m -37.2237,-5.6992 c -1.9515,-3.6462 0.025,-13.9516 3.4872,-18.2282 2.5067,-3.0923 3.1907,-1.4939 1.4817,3.4632 -0.8201,2.3793 -1.7358,6.8714 -2.035,9.9824 -0.5898,6.1353 -1.4551,7.5457 -2.9339,4.7826 z m 7.6879,-2.6567 c -0.7826,-1.2663 0.4211,-3.8637 1.607,-3.4684 1.3328,0.4441 1.3108,3.5409 -0.028,3.9873 -0.5738,0.1914 -1.2842,-0.044 -1.5787,-0.5189 z m -22.053,-3.6085 c -2.3849,-4.3744 1.5151,-17.7122 6.9324,-23.7087 3.6754,-4.0682 7.2017,-6.1268 10.4942,-6.1268 3.4056,0 2.7966,1.4313 -1.7401,4.09 -2.2201,1.301 -4.9552,3.4575 -6.0782,4.7924 -1.8497,2.1983 -5.5352,11.8221 -7.6325,19.9306 -0.8148,3.1503 -0.8158,3.1506 -1.9758,1.0225 z m 36.83,-1.3481 c 0,-1.1696 1.2157,-4.8074 2.7011,-8.0838 3.4016,-7.5021 3.4135,-11.3474 0.056,-18.1755 -2.5635,-5.2138 -2.3594,-7.2141 0.4944,-4.8458 2.4699,2.0498 5.752,9.6499 5.752,13.3193 0,2.1877 -1.169,5.9975 -3.0353,9.8917 -1.6693,3.4833 -3.2519,7.1631 -3.5171,8.1771 -0.6628,2.5337 -2.4518,2.3272 -2.4518,-0.283 z m -13.0652,-2.5254 c -0.3141,-0.8185 0.1251,-2.8346 0.9755,-4.4798 0.851,-1.6452 1.5143,-4.1409 1.4743,-5.546 -0.2272,-7.9666 -9.3372,-6.4711 -13.7936,2.2642 -2.2788,4.4666 -3.877,3.4868 -2.4923,-1.5276 1.2549,-4.5454 5.7236,-8.987 10.473,-10.4102 3.2412,-0.9708 4.0527,-0.9165 6.0729,0.4072 5.4564,3.5752 5.288,11.1135 -0.4139,18.5358 -1.4786,1.9249 -1.8061,2.0329 -2.2959,0.7564 z m -45.8813,-2.5025 c -0.3303,-0.5342 -0.1302,-4.1064 0.4428,-7.9385 2.5588,-17.0935 14.7868,-35.3575 26.6413,-39.7927 5.228,-1.9561 10.2525,-2.4228 10.2525,-0.9518 0,0.4885 -2.9375,2.2879 -6.5278,3.9988 -4.7298,2.2537 -8.3415,4.9234 -13.1111,9.6914 -7.7226,7.7198 -11.0065,13.8814 -14.1374,26.5264 -2.2701,9.1668 -2.6172,9.9924 -3.5603,8.4664 z m 69.4014,-9.2953 c 0.4872,-6.9309 0.3167,-9.3337 -0.873,-12.3069 -0.8128,-2.0319 -1.4782,-4.3568 -1.4782,-5.1664 0,-1.2864 0.2424,-1.2558 1.9252,0.2424 2.7223,2.4257 4.3775,6.828 4.3775,11.6422 0,5.2561 -1.6246,11.7666 -3.2787,13.1394 -1.0955,0.909 -1.1917,-0.1709 -0.6728,-7.5515 z m 6.644,-9.8873 c -0.026,-7.1442 -3.3204,-13.3227 -11.2579,-21.0315 -3.7646,-3.6565 -6.2017,-6.6585 -5.5847,-6.8796 4.2138,-1.511 12.5633,5.1836 17.2848,13.8585 2.5871,4.7534 3.3919,11.2734 2.0123,16.3037 -1.11,4.0468 -2.4451,2.8222 -2.4545,-2.2511 z m -63.434,0 c 0.8265,-2.7552 2.7284,-4.6225 3.9439,-3.8713 0.699,0.432 0.5305,1.4152 -0.558,3.258 -1.888,3.1963 -4.2908,3.6314 -3.3859,0.6133 z m 34.6372,-3.3528 c -1.8869,-1.1931 0.046,-2.9681 2.8058,-2.576 2.9025,0.4125 3.4597,3.4577 0.6295,3.439 -1.1506,0 -2.6964,-0.3959 -3.4353,-0.863 z m -46.3535,-7.452 c 1.4301,-6.7678 9.0904,-16.8827 12.786,-16.8827 1.8563,0 1.3157,2.2274 -1.0888,4.4865 -1.2291,1.1544 -4.1665,5.069 -6.528,8.6991 -2.3616,3.63 -4.6296,6.6053 -5.0405,6.6119 -0.4107,0 -0.4687,-1.3053 -0.1276,-2.9148 z m 19.0578,0.125 c 2.015,-3.4696 6.7826,-7.5058 11.5312,-9.7629 6.5531,-3.1146 20.2592,-3.2486 20.2592,-0.199 0,0.4339 -3.5097,1.0364 -7.7995,1.3394 -8.8905,0.6274 -15.2673,3.2711 -20.2233,8.3845 -3.8707,3.9933 -6.0279,4.1291 -3.7676,0.2373 z m 14.6826,0.6606 c 0,-1.8537 8.2951,-5.063 13.0869,-5.063 4.2284,0 10.3236,2.2018 10.3236,3.7291 0,0.4697 -2.4153,0.5795 -5.6274,0.2553 -3.893,-0.3925 -7.3328,-0.1225 -11.16,0.8755 -6.6989,1.7473 -6.6231,1.7448 -6.6231,0.2041 z m 24.0859,-5.5794 c -3.8259,-2.5056 -4.3285,-3.9872 -1.3505,-3.9824 2.7203,0 7.8783,3.2358 7.8783,4.9357 0,1.9737 -2.649,1.5868 -6.5278,-0.9533 z m -12.6507,-12.2504 c -3.1383,-1.1445 -2.7119,-2.903 0.7897,-3.2551 3.0087,-0.3029 6.373,1.7339 5.4173,3.2795 -0.7636,1.2359 -2.772,1.2279 -6.207,-0.025 z m -26.583,-3.2155 c 0.1684,-0.9129 2.9417,-2.9012 6.5939,-4.7272 6.0727,-3.0362 6.6644,-3.1506 16.2073,-3.1253 10.4122,0.028 15.116,0.9791 20.1622,4.0794 2.7315,1.6782 2.9099,2.0212 1.6879,3.2435 -1.22,1.2197 -1.6496,1.2208 -3.9949,0 -1.4455,-0.7475 -5.2438,-2.0411 -8.4409,-2.8747 -7.4992,-1.9554 -14.8061,-1.257 -24.0358,2.2969 -8.1154,3.1251 -8.5652,3.1855 -8.1797,1.0995 z" transform="translate(96.894372,-219.51941) translate(-4357.0043,-4617.1417)"/>
</svg>