<?xml version="1.0" ?><svg xmlns="http://www.w3.org/2000/svg" viewBox="0 0 129.70772 192.24713" height="192.24713mm" width="129.70772mm">
    <path d="m 4898.373,3013.6573 c -70.9733,17.3628 -139.6227,124.659 -167.4903,206.1152 -58.5349,5.1931 -76.8789,108.4551 -76.8789,108.4551 23.7875,14.9598 72.6055,-70.3164 72.6055,-70.3164 l 1.623,78.957 38.834,-43.2031 19.4883,-3.6114 -4.7285,87.0508 c 0,0 39.7143,30.4275 50.5312,-122.4062 22.27,-81.3831 95.0677,-150.1124 66.0157,-241.041 z m -343.4454,393.1054 a 25.578762,50.553616 0 0 0 -24.7187,38.1739 43.70599,36.432159 0 0 0 -11.5274,-1.2911 43.70599,36.432159 0 0 0 -6.164,0.3653 21.064833,28.500908 0 0 0 -19.6309,-18.1621 21.064833,28.500908 0 0 0 -20.7148,23.3457 41.484852,41.332752 0 0 0 -41.1895,41.33 41.484852,41.332752 0 0 0 41.4864,41.3321 41.484852,41.332752 0 0 0 30.4472,-13.2598 40.983307,52.939453 0 0 0 -5.7285,26.9942 40.983307,52.939453 0 0 0 40.9824,52.9394 40.983307,52.939453 0 0 0 40.9844,-52.9394 40.983307,52.939453 0 0 0 -4.707,-24.627 28.373064,24.760971 0 0 0 18.3183,-23.1523 28.373064,24.760971 0 0 0 -14.0761,-21.3887 25.578762,50.553616 0 0 0 1.8964,-19.1074 25.578762,50.553616 0 0 0 -25.5781,-50.5528 25.578762,50.553616 0 0 0 -0.08,0 z m 205.2051,123.5821 c -42.5105,8.1736 -47.6362,31.8157 -63.5293,66.166 -27.583,-16.5357 -67.2711,5.6438 -69.2656,31.0156 -9.9314,10.7405 -15.5118,25.3163 -15.5117,40.5156 0,31.6236 23.6737,57.2597 52.8769,57.2598 26.4916,-9e-4 48.894,-21.2303 52.4082,-49.6641 34.65,4.1521 47.6715,-29.6445 28.2676,-51.0722 13.2251,-2.9617 22.2125,-11.644 22.211,-21.4571 -5e-4,-7.8113 -5.7271,-15.0636 -15.129,-19.1601 12.288,-18.7948 47.6988,-46.5963 7.6719,-53.6035 z m -241.2363,100.2988 a 22.999382,36.174236 0 0 0 -23,36.1738 22.999382,36.174236 0 0 0 7.8672,27.2403 27.083382,29.468147 0 0 0 -1.7051,10.2871 27.083382,29.468147 0 0 0 27.084,29.4687 27.083382,29.468147 0 0 0 13.5723,-3.9668 29.806049,25.341284 0 0 0 19.8164,6.4102 29.806049,25.341284 0 0 0 29.8046,-25.3399 29.806049,25.341284 0 0 0 -17.9335,-23.2441 26.295229,36.238739 20.995169 0 0 5.0117,-9.6934 26.295229,36.238739 20.995169 0 0 -11.5664,-43.2539 26.295229,36.238739 20.995169 0 0 -30.0821,11.4063 22.999382,36.174236 0 0 0 -18.8691,-15.4883 z" color="#000" overflow="visible" fill="#fff" paint-order="fill markers stroke" transform="translate(72.154279,100.7693) matrix(0.26458333,0,0,0.26458333,-1241.7859,-897.07347)"/>
    <path d="m 4894.3738,3009.6568 c -0.6849,-0.012 -1.3969,0.01 -2.1367,0.059 -67.4564,11.1263 -141.0058,112.1463 -158.875,184.5292 -1.5491,3.6484 -3.1385,10.015 -5.4082,21.6661 -0.995,5.1071 -2.6857,5.6187 -3.8067,1.1523 -15.1225,-12.4639 -36.5783,9.3451 -46.2832,25.9102 -5.5347,8.4005 -13.9174,25.4661 -15.3301,31.207 -0.5327,2.1649 -3.2732,8.5405 -6.0898,14.168 -2.8166,5.6274 -5.1211,11.0865 -5.1211,12.1308 0,1.0443 -0.5366,2.4674 -1.1914,3.1641 -0.6549,0.6966 -2.1691,5.6499 -3.3652,11.0058 -3.4528,15.4596 0.8016,24.8415 10.7382,23.6797 2.0998,-0.2455 5.1806,-0.516 6.8457,-0.5996 18.7658,-4.5279 31.7453,-40.6538 51.418,-59.1523 4.2787,-4.95 8.4793,-8.9924 9.334,-8.9844 0.8546,0.01 3.0534,3.7352 4.8867,8.2832 3.7176,9.092 9.1978,23.7802 21.3027,19.1484 0,0 -0.3859,1.0657 -1.3027,3.5293 -4.5024,9.0682 -5.9573,13.3554 -10.9316,19.1758 l -2.9336,4.9688 -1.0469,-3.8926 c -0.5755,-2.1417 -0.6686,-5.0916 -0.207,-6.5547 1.2361,-3.9187 0.8346,-9.8651 -0.959,-14.1953 -2.2017,-5.3154 -8.3097,-5.4002 -10.3692,-0.1445 -3.3258,8.4872 -5.4679,18.7929 -5.2871,25.4375 0.2347,8.6238 4.2657,13.7498 12.8321,16.3164 13.1721,3.24 22.3409,-16.8454 32.6953,-33.4454 1.7193,-2.5535 3.5135,-6.2207 3.9863,-8.1503 0.6752,-2.7559 2.2743,-3.9709 7.457,-5.6661 8.1295,-2.659 7.9288,-2.6647 7.9395,0.1739 0.01,1.2833 0.4087,5.9031 0.8984,10.2656 1.0407,9.2709 -0.5123,17.5375 -6.6543,35.4023 -14.3253,41.6676 -14.243,40.6125 -3.4199,43.8008 23.9654,6.5394 34.2086,-15.3447 47.2813,-33.1347 1.9558,-4.0334 4.0661,-8.2928 4.6894,-9.4649 2.7164,-5.1079 12.0162,-27.94 14.5938,-35.8301 3.2809,-10.0428 4,-27.4923 1.4629,-35.4961 -0.9081,-2.8645 -3.4528,-7.5059 -5.6543,-10.3144 l -4.0039,-5.1074 5.1484,-7.543 c 38.1507,-57.2637 67.2556,-143.5927 71.8184,-193.0312 1.5782,-14.2036 6.281,-44.0981 -14.9512,-44.4668 z m -2.2852,14.2715 c 0.6649,0.049 1.207,0.2283 1.6153,0.5468 5.9031,5.9668 5.0579,35.5853 -9.9629,87 -6.5632,-4.8594 -28.2656,-19.168 -40.3282,-24.9004 -5.6385,-2.6467 -15.7523,-5.036 -21.1679,-10.08 22.4409,-24.825 59.8708,-53.3032 69.8437,-52.5664 z m -80.0293,62.2421 c 6.9606,-0.6808 -5.4958,20.6445 -21.6054,51.1993 -11.6884,17.3217 -21.7517,41.0396 -30.8125,62.4824 -4.9309,8.5633 -6.3053,11.5803 -9.7657,21.4336 -1.6175,4.6058 -3.4532,8.6907 -4.08,9.0781 -2.0443,1.2634 -2.3598,-3.6616 -0.8848,-12.9824 2.6534,-16.7673 8.2521,-25.8047 12.1308,-37.7461 10.1238,-30.5516 29.1501,-65.7004 55.0176,-93.4649 z m 14.1817,6.9805 c 0.6619,-0.054 1.533,0.2062 2.6289,0.8027 26.0146,11.4303 43.7884,24.0659 47.7793,31.2168 -0.2266,3.8757 -0.8553,8.2398 -5.6446,17.9454 -3.0931,4.9748 -2.7223,7.1993 -3.1347,3.6308 -6.3724,-16.359 -14.0217,-19.4606 -20.2305,-22.9629 -20.0276,-10.1807 -35.8711,6.9973 -42.1719,27.1485 -0.9094,5.6871 -5.0639,-0.2727 -8.7558,4.2831 0,0 0.126,-2.8087 2.4746,-7.0117 7.6704,-14.4636 22.8005,-43.0698 25.6836,-53.9668 0.2563,-0.6627 0.7091,-1.0315 1.3711,-1.0859 z m 8.3886,37.8984 c 1.8858,-0.01 3.8188,0.4762 5.7598,1.5625 -7.4581,-1.1724 -10.8298,2.5133 -13.8496,5.7852 -1.2597,2.0906 -1.8514,2.801 0.5371,5.1895 2.3885,2.3885 2.3738,2.5124 -0.5019,4.4218 -5.4934,3.6475 -3.1735,10.8402 4.7519,14.7324 5.7485,2.8232 9.0549,2.4384 13.4141,-1.5586 8.0879,-7.4159 9.0245,-18.3941 2.084,-24.0605 -2.5118,-2.0506 -4.2564,-3.4726 -3.2872,-3.4726 5.4772,0.4207 11.0769,9.5397 11.2989,14.7675 -0.6393,13.5766 -12.4098,27.8591 -34.9434,18.5039 -12.8066,-3.2855 -0.6193,-35.8123 14.7363,-35.8711 z m -1.1777,13.2657 c 4.4795,0 10.539,3.0713 8.6602,6.582 -1.5823,2.937 -7.1839,4.465 -9.0723,-1.1211 -3.5007,-4.9163 -3.4601,-5.4609 0.4121,-5.4609 z m -42.3184,18.6679 c 0.9981,0 1.8145,0.5299 1.8145,1.1778 0,2.2224 7.2535,2.6693 9.5703,0.5898 2.0252,-1.8177 2.4234,-1.6491 4.1973,1.7812 4.1045,7.9374 11.9215,11.4582 25.4316,11.4512 7.8095,0 17.01,-2.7678 18.7891,-5.6465 1.033,-1.6714 4.6797,-1.7964 4.6797,-0.1601 -4.6208,25.0815 -22.1325,47.5794 -34.961,69.3535 0,0.8408 -5.422,6.9817 -12.0488,13.6465 -9.5506,9.5898 -12.4109,12.1405 -17.2441,12.5429 -2.6712,-0.2385 -18.6524,-5.3953 -22.7071,-7.5097 -2.5666,-1.3385 -7.816,-4.0495 -11.666,-6.0235 -3.85,-1.9739 -7,-4.1767 -7,-4.8964 0,-1.3182 2.096,-6.4201 6.7891,-16.5254 6.8008,-14.7709 13.042,-32.2711 22.459,-48.2285 l 3.9824,5.1855 c 2.1078,2.3219 8.8791,2.6872 9.709,-0.1035 2.8489,-5.7375 3.8219,-8.1584 -2.7735,-11.5684 -2.1275,-1.1 -5.8069,-0.4128 -8.2148,1.7032 -1.2618,-0.8144 7.435,-16.7696 9.1933,-16.7696 z m -16.7031,39.8028 c -1.8987,0.072 -3.4894,0.7445 -3.9922,2.0546 -1.3338,3.4759 -0.9168,9.2492 0.791,10.9571 2.6194,2.6193 6.3217,1.8354 9.7559,-2.0664 3.9509,-4.4888 3.9892,-4.9893 0.6445,-8.334 -1.8067,-1.8067 -4.758,-2.7043 -7.1992,-2.6113 z m -58.3144,24.125 c 6.6114,0.078 4.6112,0.3221 7.1132,0 1.1536,0 0.6304,21.1241 -0.6191,25 -4.2004,7.1905 -7.9635,-0.1589 -26.0488,23 -2.494,3.3 -5.1429,6.6553 -5.8867,7.457 -0.7439,0.8017 -3.7523,4.858 -6.6856,9.0137 -2.9333,4.1556 -8.1827,11.2267 -11.666,15.7128 -3.4833,4.4862 -6.334,8.6805 -6.334,9.3204 0,0.6398 -0.6006,1.1621 -1.334,1.1621 -0.7333,0 -1.3291,-0.45 -1.3261,-1 0.01,-1.5571 5.584,-16.7593 12.5898,-34.3321 4.5749,-11.4716 10.6625,-29.3954 27.2109,-46.3339 7.1992,-7.4725 9.4022,-9 12.9864,-9 z m 45.541,4.6582 c -5.4897,0.2263 -7.8956,6.529 -2.8438,10.5586 0.9632,0.7682 3.4538,1.3688 5.5332,1.3339 3.4997,-0.059 3.7793,-0.4527 3.7793,-5.3007 0,-4.6754 -0.423,-5.3501 -3.9414,-6.2911 -0.8974,-0.24 -1.7431,-0.3331 -2.5273,-0.3007 z m -20.711,29.3652 c 0.9868,-0.08 6.2825,2.1635 12.3008,5.2344 6.4195,3.2756 13.8636,6.6292 16.541,7.4511 2.6775,0.822 5.7575,1.7817 6.8438,2.1348 7.6478,1.6734 -16.284,10.9914 -25.459,10.5469 -3.0109,0.3636 -5.4708,-1.1554 -6.7812,-5.5293 -1.7569,-6.3009 -4.9016,-9.1538 -3.584,-19.791 0.026,-0.026 0.073,-0.042 0.1386,-0.047 z m 83.5411,4.3262 c 3.8299,8.9363 3.7814,24.2754 -1.7657,40.9843 -6.9583,20.3483 -16.9314,40.9681 -29.4453,57.8614 -4.9301,4.3287 -8.6211,5.3565 -8.6211,2.4004 0,-0.9561 1.4054,-4.7067 3.1231,-8.334 5.0363,-10.6355 11.6699,-35.1684 12.2383,-45.2617 0.5525,-9.812 -1.5693,-23.3538 -3.9063,-24.9278 -1.609,-1.0836 -1.9682,-0.7283 6.5449,-6.4648 7.8444,-5.3293 14.8026,-9.3411 21.8321,-16.2578 z m -135.67,100.5429 c -1.2815,-0.014 -3.4024,1.8258 -7.75,6.1465 -13.4591,13.4707 -24.5422,33.2129 -35.5644,50.625 -15.8342,23.1486 -29.6594,54.6236 -42.8477,82.125 -3.3,6.8291 -6,13.2858 -6,14.3496 0,1.0639 -0.8218,3.118 -1.8281,4.5645 -3.1592,4.5413 -13.9429,32.6943 -19.5215,50.9668 -2.7728,9.0824 -2.8183,9.8738 -0.7597,13.0156 1.6361,2.497 2.9609,3.1512 5.2285,2.582 1.6707,-0.4193 4.059,-0.9125 5.3066,-1.0957 3.146,-0.4617 4.2428,-1.9277 6.6055,-8.8379 3.7573,-10.9893 12.9701,-36.6303 14.1328,-39.3339 0.6307,-1.4667 1.7917,-4.1667 2.5801,-6 0.7883,-1.8334 3.3195,-7.834 5.625,-13.334 6.4307,-15.2535 13.0485,-28.1215 19.6328,-42.666 6.4647,-14.6221 13.7551,-28.0289 20.6543,-42 11.2977,-19.091 22.3066,-38.0097 30.9336,-56.793 -2.1403,-4.056 7.5486,-7.095 5.2734,-12.4199 -0.4643,-1.2099 -0.9322,-1.8858 -1.7012,-1.8946 z m 28.9297,4.3243 c -0.2442,0 -0.5305,0.057 -0.8593,0.1777 -2.5273,2.8547 -10.9731,11.1358 -14.8985,17.873 0,0.8678 -1.5006,3.5437 -3.334,5.9473 -4.5839,6.0571 -8.6647,14.6044 -13.2988,21.5078 -2.5779,5.1021 -5.258,10.1774 -5.957,11.2774 -16.0187,25.9107 -24.952,47.6586 -39.3418,79.33 -10.1427,20.0496 -19.0498,42.752 -29.0918,64.0039 -4.1726,10.8189 -12.5437,26.3269 -16.9141,42.0528 -0.5881,1.1292 -1.4819,5.0548 -1.9863,8.7226 -0.9058,6.5861 -0.8615,6.6935 3.5039,8.6797 3.8418,1.748 4.7203,1.7608 6.7187,0.1016 1.2647,-1.05 2.6838,-3.1792 3.1543,-4.7324 0.4705,-1.5533 2.1951,-4.6243 3.8321,-6.8243 1.6369,-2.2 3.7484,-7.3006 4.6914,-11.3339 0.943,-4.0334 2.4693,-8.8327 3.3906,-10.6661 0.9213,-1.8333 3.3014,-8.1333 5.291,-14 17.8585,-52.2806 53.5924,-119.6489 66.002,-146 4.6177,-9.2564 36.6672,-66.0806 29.0976,-66.1171 z m -161.873,27.4042 c -6.7097,0.1139 -14.4235,1.6721 -17.9121,4.1641 -8.5559,6.1116 -11.3426,9.1098 -15.3164,16.4766 -4.1809,7.7504 -5.8601,8.7727 -8.7286,5.3164 -7.2281,-8.7094 -26.6684,-8.6288 -39.7792,0.164 -3.2188,2.1587 -6.9694,4.5164 -8.334,5.2403 -1.3646,0.7239 -2.5004,2.2245 -2.5235,3.334 -0.062,2.9995 -5.7296,6.5686 -11.0898,6.9843 -13.0545,1.0125 -31.5352,31.447 -31.5352,51.9336 0,6.0262 0.7442,8.9593 3.2422,12.793 8.7799,13.4748 29.2079,29.2683 39.5606,30.5859 10.3024,1.3658 11.6975,3.5827 22.3906,-0.9472 3.8027,0 3.8401,0.074 2.5566,5 -2.5307,9.7135 -2.6567,12.1101 -1.1484,21.8398 2.8108,18.1319 10.5141,28.8556 24.1562,33.6309 3.2501,1.1376 6.0207,2.0977 6.1563,2.1328 0.1356,0.035 1.7849,-0.5212 3.666,-1.2363 4.6607,-1.772 4.3131,-4.9585 -0.6601,-6.0508 -7.6314,-1.6761 -11.2004,-6.8677 -14.5489,-21.1602 -2.2454,-9.5843 -2.8224,-14.9413 -2.1875,-20.3437 0.9835,-8.3682 6.4602,-22.4271 10.3985,-26.6934 4.5097,-4.8853 2.7529,-7.7554 -4.8829,-7.9766 -5.8736,-0.1701 -7.0441,0.2928 -10.6484,4.2051 -2.3884,2.5926 -6.3512,5.0109 -9.6601,5.8946 -3.0858,0.824 -5.9278,2.0118 -6.3165,2.6406 -1.1142,1.8028 -12.2999,3.0523 -14.9824,1.6738 -1.3333,-0.6852 -3.9794,-1.9656 -5.8789,-2.8457 -4.6588,-2.1586 -17.4156,-14.2606 -21.7226,-20.6074 -4.0591,-5.9814 -4.4314,-11.6899 -1.4961,-22.959 2.0272,-7.7829 7.4458,-19.4097 10.8496,-23.2793 1.4161,-1.61 3.5084,-1.9786 8.5097,-1.498 7.4917,0.7198 9.3129,-0.3061 14.1563,-7.9786 1.7303,-2.741 6.4096,-8.2985 10.3984,-12.3515 6.0519,-6.1493 8.0232,-7.3692 11.9141,-7.3692 3.6834,0 5.2757,0.8596 7.5801,4.0957 4.4468,6.245 6.5261,14.7401 5.6601,23.1309 -0.9618,9.3195 0.5952,11.4395 8.4043,11.4395 7.2531,0 7.9516,-1.0276 14.5176,-21.334 2.7269,-8.4334 5.6723,-16.2321 6.5449,-17.3321 0.8727,-1.1 2.3456,-3.5006 3.2735,-5.3339 4.2389,-8.3754 11.7186,-14.0768 16.7949,-12.8028 4.1313,1.0369 10.0112,8.6292 11.3789,14.6934 1.7773,7.8803 -2.2361,25.1015 -7.5391,32.3535 -1.707,2.3344 -3.1035,4.8837 -3.1035,5.666 0,0.7823 -0.6006,1.4238 -1.334,1.4238 -2.5507,0 -1.3123,3.7061 1.9532,5.8457 5.0085,3.2817 9.7361,2.6701 14.2519,-1.8457 2.2,-2.2 4.2946,-4 4.6543,-4 0.8978,0 -0.6273,4.9365 -3.5019,11.3321 -3.9657,8.8228 -4.3514,13.6721 -1.3282,16.6953 3.6256,3.6256 6.8312,3.3085 11.0489,-1.0938 3.9043,-4.0753 9.0507,-19.9333 9.3886,-28.9297 0.1837,-4.8907 -0.2168,-5.549 -4.8613,-8 l -5.0605,-2.6718 1.0605,-6.666 c 0.5835,-3.6667 1.0421,-11.1661 1.0176,-16.6661 -0.038,-8.5274 -0.5715,-10.8189 -3.6172,-15.5605 -3.555,-5.5345 -9.0945,-10.2985 -15.9219,-13.6895 -2.1752,-1.0803 -5.8394,-1.5312 -9.8652,-1.4629 z m 168.7051,15.3575 c -0.6386,-0.02 -1.8859,0.5587 -4.0782,2.0215 -6.3208,4.2843 -9.8914,11.1453 -14.1777,17.25 -11.9756,17.5755 -19.8513,32.4046 -32.4004,62.0839 -4.8375,9.836 -4.8568,10.738 -0.2676,12.9766 2.7,1.317 4.3704,1.4132 6.334,0.3672 13.8342,-7.4417 12.6473,-19.7832 21.4512,-36.2695 7.5959,-15.4486 14.543,-33.3325 21.5098,-49.7422 -0.021,-3.175 3.5444,-8.6277 1.6289,-8.6875 z m 31.7812,114.0078 c -6.1427,0.025 -12.7711,0.5624 -16.1699,1.4805 -9.6144,2.5969 -22.172,9.6307 -29.5176,16.5332 -8.3156,7.8139 -12.6504,17.6579 -15.4121,35 -0.9635,6.05 -2.0938,10.9943 -2.5117,10.9863 -0.4179,-0.01 -3.7048,-0.908 -7.3047,-2 -7.2774,-2.2077 -22.2264,-2.6528 -25.8066,-0.7676 -1.2734,0.6705 -5.6152,2.5424 -9.6485,4.1582 -6.5796,2.636 -19.3564,11.9769 -23.625,17.2734 -0.8935,1.1087 -2.8909,4.6611 -4.4394,7.8946 -2.7254,5.6908 -2.7411,6.0431 -0.5059,11 2.8671,6.3581 6.1008,6.6091 9.7207,0.7519 4.6267,-7.4861 24.4342,-24.9094 28.4277,-25.0058 0.9656,-0.023 2.8872,-0.8987 4.2696,-1.9453 3.2464,-2.458 12.8594,-3.8846 18.7402,-2.7813 2.5334,0.4753 7.0939,2.9418 10.1348,5.4824 3.0409,2.5406 6.9375,4.6192 8.6582,4.6192 1.7206,0 3.5231,0.6388 4.0058,1.4199 1.3622,2.204 6.2226,-2.822 5.1602,-5.3359 -2.0937,-4.9546 -2.7968,-12.6728 -1.625,-17.8418 0.6951,-3.0664 1.533,-7.647 1.8633,-10.1797 1.7772,-13.6305 15.4214,-30.5726 27.4101,-34.0352 1.7257,-0.4984 4.9762,-1.733 7.2227,-2.7441 11.0176,-4.9591 25.916,-3.3244 25.916,2.8437 0,5.2302 -2.4886,9.8722 -6.0098,11.211 -1.8645,0.7089 -4.6435,3.4128 -6.1757,6.0097 -1.5323,2.5969 -3.8752,5.3048 -5.2071,6.0176 -1.3318,0.7128 -2.6131,2.6256 -2.8476,4.25 -0.2976,2.0609 -1.6367,3.2008 -4.4278,3.7715 -6.34,1.2963 -10.3033,3.8967 -9.4258,6.1836 1.4372,3.7452 6.7391,9.6144 8.7598,9.6972 1.1,0.045 3.7179,0.9788 5.8184,2.0743 2.1005,1.0954 4.3505,1.9922 5,1.9922 0.6495,0 2.4106,1.2289 3.9121,2.7304 2.4795,2.4795 2.5721,3.1825 1.0156,7.666 -2.3395,6.7391 -11.1958,15.3303 -18.7949,18.2325 -3.457,1.3202 -6.2852,3.1472 -6.2852,4.0605 0,1.7353 8.2752,8.6445 10.3535,8.6445 2.6824,0 4.6881,6.6502 3.9317,13.0371 -1.0976,9.2678 -4.274,14.9064 -11.6192,20.6289 -5.9339,4.6231 -13.332,6.7246 -13.332,3.7871 0,-1.6792 -10.8071,-11.8229 -15.8867,-14.912 -4.6962,-2.856 -7.687,-3.1437 -12.7344,-1.2247 -3.3868,1.2877 -3.4144,1.3907 -1.1992,4.7715 1.2454,1.9008 5.5418,6.7065 9.5469,10.6797 7.0786,7.0223 7.2585,7.3823 6.4199,12.8945 -1.4082,9.2565 -9.5815,22.3379 -13.957,22.3379 -0.8373,0 -1.5235,0.5054 -1.5235,1.1231 0,1.3681 -19.3521,10.5668 -24,11.4082 -1.8333,0.3318 -5.8125,0.6486 -8.8437,0.7031 -4.8338,0.087 -5.5922,0.5224 -6.1699,3.5449 -0.5394,2.8209 -0.2232,3.3324 1.75,2.8164 1.3254,-0.3466 4.3766,-0.2297 6.7793,0.2617 12.7683,2.6114 37.057,-2.8742 46.246,-10.4453 8.9965,-7.4124 15.374,-16.9882 16.9063,-25.3867 1.2465,-6.8322 1.5924,-7.3275 5.332,-7.5977 2.2,-0.1589 6.1013,-0.7215 8.668,-1.25 2.5667,-0.5285 5.116,-0.8598 5.666,-0.7363 0.55,0.1235 1,-0.3356 1,-1.0195 0,-0.6839 1.2147,-1.6285 2.6992,-2.0996 4.4639,-1.4168 12.8886,-13.9429 15.0899,-22.4355 1.7239,-6.651 1.7564,-8.6406 0.2246,-13.7305 -0.9854,-3.2741 -2.7344,-7.3918 -3.8867,-9.1504 -2.0355,-3.1066 -1.9334,-3.3127 3.5566,-7.2715 16.1417,-11.6396 16.5152,-27.9112 0.8984,-39.1367 -2.7539,-1.9796 -5.8884,-3.5977 -6.9648,-3.5977 -1.0764,0 -2.6737,-0.8634 -3.5488,-1.9179 -1.293,-1.558 -0.3973,-3.1813 4.7793,-8.666 3.5036,-3.7122 7.1215,-6.75 8.039,-6.75 1.5218,0 8.6345,-6.6607 13.9024,-13.0176 6.1937,-7.4743 3.4305,-15.3897 -7.5313,-21.5762 -4.2488,-2.3979 -9.2698,-4.594 -11.1582,-4.8809 -2.5323,-0.3846 -6.0429,-0.5538 -9.7285,-0.539 z m -238.3457,93.8945 c -6.9338,0.1687 -13.2412,3.5222 -19.2559,10.1797 -5.0634,5.6047 -11.3997,17.4662 -11.4238,21.3848 -0.01,1.1611 -0.4243,2.5219 -0.9277,3.0254 -0.5034,0.5034 -1.152,5.0311 -1.4414,10.0624 -0.4312,7.4967 0.01,10.1917 2.4219,14.9278 6.0323,11.8243 15.4795,20.5321 28.4218,26.1992 4.2454,1.8589 8.8728,2.2139 8.7989,0.6738 -0.026,-0.55 -4.5009,-5.7375 -9.9415,-11.5273 -14.8408,-15.7936 -17.79,-24.4895 -13.2265,-38.9981 2.7849,-8.8538 14.4459,-23.8085 18.5644,-23.8085 4.5843,0 7.4487,7.3745 7.5274,19.3789 l 0.072,10.8945 5.5937,2.4746 c 3.0764,1.3608 6.7739,2.1649 8.2188,1.7871 1.4687,-0.3841 4.379,-3.9945 6.5996,-8.1875 2.1847,-4.1251 5.1033,-8.1405 6.4844,-8.9238 1.381,-0.7833 3.9032,-2.7738 5.6054,-4.4238 3.0872,-2.9924 6.5366,-3.8954 7.6407,-2 1.7276,2.9657 -6.2242,34.0759 -9.8164,38.4042 -2.598,3.1304 -2.1062,12.3545 0.7754,14.5332 3.5256,2.6658 12.7938,2.5697 18.5839,-0.1914 3.5979,-1.7157 5.5963,-1.9376 8.3789,-0.9316 3.0977,1.1198 3.5991,1.9887 3.2989,5.7031 -0.1948,2.4099 -1.8442,6.336 -3.666,8.7246 -1.8219,2.3886 -3.3125,4.8904 -3.3125,5.5586 0,0.6682 -2.2068,3.0111 -4.9043,5.207 -9.9774,8.1219 -12.0679,11.5066 -8.0957,13.1094 6.2522,2.5229 16.5336,-1.1008 24.4218,-8.6074 2.2482,-2.1395 4.4823,-3.4943 4.9668,-3.0098 0.4845,0.4846 1.254,-0.2543 1.709,-1.6426 0.455,-1.3882 2.269,-5.3058 4.0313,-8.705 2.1477,-4.1428 3.205,-8.4059 3.205,-12.9317 0,-6.13 -0.4232,-7.0738 -4.5976,-10.2578 -4.5534,-3.473 -17.1353,-6.3058 -22.166,-4.9902 -3.9052,1.0212 -4.0483,-1.7947 -0.5645,-11.2031 3.8547,-10.4102 5.4356,-22.628 4.0879,-31.6152 -0.8116,-5.4125 -1.5478,-6.5014 -5.8828,-8.7129 -4.9812,-2.5412 -14.5003,-3.9643 -16.9141,-2.5274 -0.7129,0.4244 -3.3874,1.2224 -5.9433,1.7715 -2.5559,0.5491 -6.0217,1.8976 -7.7012,2.998 -2.7585,1.8075 -3.3095,1.7712 -5.6875,-0.3808 -1.4479,-1.3103 -2.6356,-3.0388 -2.6406,-3.8418 -0.014,-2.1932 -7.9324,-7.0591 -14.1446,-8.6914 -2.4631,-0.6472 -4.843,-0.9449 -7.1543,-0.8887 z" fill="#030303" transform="translate(72.154279,100.7693) matrix(0.26458333,0,0,0.26458333,-1241.7859,-897.07347)"/>
</svg>