<?xml version="1.0" ?><svg xmlns="http://www.w3.org/2000/svg" viewBox="0 0 277.37604 282.05267" height="282.05267mm" width="277.37604mm">
    <path d="m 198.54488,1462.5755 -87.5967,-152.3514 c -18.501373,0.6032 -33.640652,-2.6637 -42.092618,-13.6285 l -32.070866,-114.3435 21.702741,-16.6059 81.802683,80.6572 -1.66944,50.4503 84.87794,141.1502 43.51373,-40.8869 -46.14967,-266.006 c -15.89089,-8.4652 -28.78372,-21.0154 -14.17819,-44.328 0,0 -63.59729,-13.5571 -86.17024,-55.2942 C 73.769861,944.95904 95.296886,895.2204 95.296886,895.2204 L 220.32931,1056.2976 191.07012,842.71411 c 0,0 75.47639,74.41027 84.08718,116.63669 8.6108,42.2264 -15.64003,102.8775 -15.64003,102.8775 18.70998,14.9621 15.51476,37.6261 15.09022,57.2083 0,0 65.04298,82.044 72.86302,90.9005 7.82003,8.8565 -12.03761,21.9831 -25.74458,11.1497 -13.70696,-10.8334 -68.62284,-72.4333 -68.62284,-72.4333 l 39.71338,226.9993 76.61858,-70.2192 c 0,0 41.29782,-194.9935 60.62821,-264.7383 19.3304,-69.74474 29.52278,-138.54063 61.41791,-151.58812 31.89513,-13.0475 45.77783,-6.24698 45.77783,-6.24698 -11.20579,8.35164 -24.36778,16.53562 -7.64421,27.28112 -18.61488,5.592 -18.91604,18.02117 -11.3337,33.39355 -35.11888,13.92522 -15.11052,29.7121 -9.40255,39.27703 -29.24873,2.95466 -13.14962,25.254 -8.61084,42.6218 -30.3468,8.2821 -35.58983,22.5047 -12.91617,43.3335 -12.36625,11.8519 -45.82731,21.0797 -8.62659,39.0976 -20.82365,11.1754 -31.21059,35.2548 -12.90875,47.9874 -15.39459,-1.1731 -26.66223,18.9062 -10.79915,39.3571 l -15.37645,56.1438 125.73538,-96.6306 c 0,0 -42.70253,-52.3481 -11.15888,-116.7157 31.54365,-64.36768 52.2799,-75.43829 52.2799,-75.43829 -13.13126,19.71269 -5.70902,71.62689 30.51732,13.27434 34.95727,-56.30833 9.8363,-78.50828 -5.82721,-70.76238 0,0 38.92437,-62.86519 85.40515,-64.52578 46.48078,-1.66059 34.79482,23.56455 27.5898,48.94786 -7.20503,25.38332 -119.11953,238.06925 -119.11953,238.06925 0,0 41.66842,-14.6398 75.18679,19.7176 43.52813,44.6177 36.23631,95.9176 36.23631,95.9176 l 324.46098,-118.4245 c 0.5506,0.3433 -1.2649,13.0527 -25.7446,43.0172 -45.75683,56.0089 -302.09716,190.3438 -359.10571,168.5103 -25.11451,27.6277 -65.89911,61.6791 -65.89911,61.6791 l -81.42389,63.5426 c 0,0 286.08975,108.0965 326.94711,120.5114 40.85735,12.4149 45.68994,25.3833 32.33441,46.4965 -13.35554,21.1132 -35.76127,30.8395 -72.66468,23.1692 -36.90341,-7.6703 -358.40283,-122.6464 -358.40283,-122.6464 l -70.6438,65.2374 70.46807,80.8945 c 0,0 88.9846,-31.0452 130.19343,28.0244 41.20883,59.0696 12.52913,113.8442 -12.47689,149.6904 -25.29237,36.2567 -110.16373,56.1301 -151.37848,-4.5964 -40.04296,-58.9999 -7.78964,-136.0087 7.54285,-147.3081 3.95768,-2.9166 -71.34669,-92.3604 -71.34669,-92.3604 0,0 -46.0012,55.5729 -99.68696,46.7164 -53.68576,-8.8565 -71.61034,-18.1083 -90.23778,-43.7289 -18.62745,-25.6206 -50.37635,-76.3283 29.12383,-149.4562 z" color="#000" overflow="visible" fill="#fff" paint-order="fill markers stroke" transform="translate(159.32118,15.230653) matrix(0.26458333,0,0,0.26458333,-165.70038,-234.24026)"/>
    <path d="m 437.65246,1873.7859 c -38.26228,-23.9882 -49.75825,-86.6244 -41.44715,-124.9635 5.22105,-19.9047 10.09079,-29.4408 20.19355,-39.5435 l 6.74482,-6.7448 c -26.04906,-31.0246 -51.63163,-64.3186 -76.2642,-91.877 l -7.6093,-8.3532 -6.42676,5.6865 c -3.5347,3.1276 -7.3973,6.5865 -8.5836,7.6865 -14.0082,10.2389 -41.5204,27.2408 -55.7947,28 -4.0944,0 -10.355,3.764 -6.8453,4.1155 3.973,-0.061 8.1321,-0.3281 11.4932,-0.2427 14.0359,0.3771 35.1585,-8.405 48.467,-20.1512 4.6462,-4.1006 9.8807,-7.2528 14.4211,-8.6841 8.26688,-2.6059 11.37103,-1.5217 12.05147,4.2089 0.36657,3.0872 -1.34045,5.3088 -11.16648,14.5322 -23.96823,20.6918 -45.96766,27.3137 -69.23369,25.9301 -12.3126,-0.746 -20.15781,-2.5319 -27.7238,-4.3289 -20.26042,-4.8122 -33.98973,-11.6748 -43.1321,-19.38 -1.3833,0 -1.7679,0.804 -1.2161,2.5425 1.9592,6.1727 -5.0846,23.7285 -11.8189,29.4575 -20.56048,18.1318 -53.25888,3.2587 -58.7504,-17.5204 -5.17108,-20.9229 9.30958,-43.9092 17.3008,-46.4796 16.03477,-5.1576 6.49966,-18.4948 4.1915,-23.2483 -3.7352,-7.6283 -7.7333,-29.3183 -6.6664,-36.1656 6.5088,-39.6374 15.7887,-53.61 44.5379,-83.3425 3.618,-3.6758 6.536,-7.1092 6.4844,-7.63 -0.052,-0.5208 -2.402,-4.547 -5.223,-8.947 -27.8935,-42.6546 -50.3918,-84.5103 -76.2446,-125.2239 -4.2964,-6.7391 -5.9556,-8.3965 -7.2939,-7.2858 -6.015598,2.4105 -28.339339,-4.2078 -38.106807,-10.1378 -4.068353,-2.47 -7.592389,-12.6926 -9.264222,-17.887 -2.010461,-7.0477 -2.690369,-12.6196 -13.181469,-54.675 -6.3316,-25.3814 -9.2386,-34.8129 -11.5925,-37.6102 -2.5995,-3.0895 -6.5104,-9.546 -5.7449,-13.73 2.3191,-9.4296 33.0665,-33.2895 41.7536,-26.3084 16.6279,22.3355 36.253098,42.6803 55.154298,61.529 21.8376,21.6066 31.038,31.5948 31.5449,34.2462 0.3935,2.0587 0.2601,4.0446 -0.2964,4.4131 -2.1421,1.4185 -3.8191,6.356 -5.2092,15.3368 -2.6049,16.8291 -2.6585,19.3425 -0.5053,23.7366 23.8908,38.3771 51.7044,102.2486 76.869,131.5967 9.7293,-7.0066 16.835,-15.7227 26.2479,-24.3749 l 6.9654,-6.375 -1.7089,-8.9584 c -0.94,-4.927 -2.1868,-13.1584 -2.7708,-18.2917 -0.5841,-5.1333 -2.9236,-21.3333 -5.199,-36 -7.9104,-53.2942 -12.9908,-93.6842 -22.2425,-141.3333 -2.1246,-15.2754 -6.477,-31.5234 -8.5882,-45.7676 -1.4257,-9.7282 -2.0195,-11.2502 -4.8017,-12.308 -3.8469,-1.4626 -9.9987,-7.5987 -14.6212,-14.5837 -4.55376,-9.0274 -3.39459,-15.6858 -1.1948,-26.0074 l 0.8871,-4 -6.6743,0.4556 c -54.3262,-5.6145 -97.928998,-78.7187 -103.617798,-123.12223 -0.3813,-3.6667 -1.2559,-10.5667 -1.9436,-15.3333 -0.6877,-4.7667 -1.2589,-16.4667 -1.2694,-26 -0.032,-28.76376 4.2458,-38.02766 16.4782,-35.68926 4.096098,1.64068 31.222998,35.86586 31.487998,36.91566 0,0.4254 1.05,1.9334 2.3333,3.351 1.2833,1.4177 3.9876,4.8677 6.0095,7.6667 2.022,2.7991 7.722,10.5831 12.6667,17.2978 4.9448,6.7148 9.8905,13.5242 10.9905,15.132 3.6339,5.3116 16.4641,21.9561 18.4945,23.9927 1.0967,1.1 5.9028,7.99993 10.6804,15.33333 4.7776,7.3334 9.0186,13.6333 9.4246,14 0.4059,0.3667 1.5797,2.3003 2.6084,4.2969 2.8514,5.5343 9.3441,12.7065 9.3874,10.3698 0.02,-1.1 -1.4806,-9.2 -3.3354,-18 -3.7069,-17.1872 -6.3104,-34.87013 -9.1562,-52.00003 -2.5093,-15.0812 -3.4565,-22.0633 -10.0389,-73.99996 -3.47957,-11.40999 -3.19266,-25.54559 -6.0578,-38.083 -1.22309,-9.48961 -0.6292,-13.6144 2.177,-15.3922 3.6141,-2.2899 7.83487,1.14861 10.4826,3.3537 17.65997,14.70762 35.058,31.60333 48.6694,51.4549 27.6778,39.32126 47.5726,75.51496 39.1284,122.66659 -2.8887,15.8723 -10.8914,35.3748 -16.3876,39.9362 -2.5131,2.0858 -2.6024,3.3185 -0.4078,5.6352 9.26279,10.7505 21.55063,30.1474 14.3325,52.4267 18.0499,29.9255 96.74964,101.3352 70.17148,113.633 -12.23604,10.1685 -29.82428,7.5864 -38.19868,-2.3285 -11.0994,-18.1703 -27.156,-30.4511 -38.9276,-46.707 -0.4417,-1.1832 -14.3107,-15.929 -14.9818,-15.929 -0.2479,0 0.084,2.25 0.7367,5 0.6532,2.75 1.8114,8.9 2.5738,13.6667 8.9866,60.0985 21.3252,107.6893 26.5555,161.8748 0.7558,7.9978 1.6661,14.8333 2.0228,15.19 2.8338,-0.3053 4.75305,-2.6241 7.1558,-4.3981 21.585,-20.5627 46.44758,-41.7164 64.89048,-56.661 3.66667,-2.9559 7.56667,-6.1837 8.66667,-7.1731 1.1,-0.9893 4.40881,-3.2998 7.35291,-5.1343 11.47902,-11.6417 30.83269,-19.7393 41.46074,-31.2476 12.05383,-10.7928 16.38685,-37.6272 24.18104,-54.3749 1.93643,-3.7866 1.86556,-4.0506 -2.01892,-7.5213 -8.86413,-7.9201 -8.02928,-27.1023 1.53238,-35.2091 4.63124,-3.9265 4.70341,-4.1379 3.3855,-9.915 -2.04754,-8.9756 -6.08115,-25.1984 6.4545,-32.1628 4.9121,-4.919 5.63297,-3.6637 2.5271,-9.431 -15.36022,-15.7317 -6.20681,-28.8779 7.52378,-33.0735 9.66388,-4.8817 13.91265,-8.4286 5.46164,-14.1924 -4.11086,-5.2908 -11.56682,-12.9774 -3.0721,-23.3254 12.12862,-16.159 23.93271,-5.2552 18.01975,-19.1119 -3.47814,-13.6767 -16.01063,-29.99533 6.80672,-37.19093 6.07056,-6.6848 0.42678,-5.2791 -2.93217,-11.6068 -4.53004,-10.8284 -1.4878,-18.7654 5.24833,-25.8588 4.92969,-5.1451 5.88987,-6.998 5.83113,-11.2532 -0.0895,-6.4821 -1.04149,-14.2808 9.88086,-19.8536 4.20881,-3.6954 4.19166,-2.8442 3.86545,-6.63036 -3.27377,-7.73447 3.86038,-10.31637 4.84375,-15.8317 -25.02586,3.68655 -43.14873,20.33986 -47.16407,35.49266 -34.83659,122.42693 -67.14722,233.99333 -91.8636,349.63013 -1.83063,8.6754 -2.96479,11.1195 -6.96039,15 -8.40657,8.1644 -11.1873,5.4623 -7.92994,-7.7057 1.13265,-4.5788 2.75473,-12.6861 3.60462,-18.0163 22.2746,-108.0017 54.99117,-216.0603 81.83665,-323.87993 11.06603,-44.39033 28.7632,-58.39713 64.79101,-63.89666 8.30681,-1.36385 22.87459,-5.55593 28.42869,0.004 4.42229,4.13545 3.58331,15.35886 -1.77241,16.368 -12.2954,-1.62166 -18.15127,8.42801 -11.85649,14.39606 9.41595,8.5355 4.39808,12.969 -3.23213,13.5882 -16.94931,1.1134 -9.22981,17.2369 0.32391,22.898 4.19519,9.0442 -6.15706,8.6179 -10.46591,7.6316 -18.6018,2.2002 -17.67119,22.6959 -1.09053,25.1827 7.87936,1.9575 4.25607,13.1405 -5.37415,12.2954 -18.14093,-2.4505 -21.26814,19.10733 -5.67502,31.94683 11.31818,5.7664 8.96509,18.4247 -4.86722,18.4332 -28.20126,-10.6383 -23.53345,20.8552 -7.39296,27.1995 8.98853,3.5739 -0.71042,13.1153 -7.18492,12.1557 -22.1814,3.9766 -27.12816,21.4758 -8.1068,25.658 17.12095,2.5319 8.82071,11.5964 -1.62272,13.8132 -11.85073,3.8271 -18.80178,25.3571 -9.93153,32.4676 14.45784,7.6778 11.58211,12.9376 -3.91441,15.3489 -5.16315,0.7514 -6.64603,1.5754 -7.66667,4.2599 -2.88507,7.5883 -0.17149,15.2882 7.43147,21.0873 7.05665,3.6845 3.7867,11.0911 -2.46852,11.4007 -2.38663,2.6108 -7.38093,21.8773 -11.11166,34.2278 32.14138,-23.6979 70.13233,-56.6904 102.81304,-79.3546 5.19125,-3.4273 1.3187,-7.2984 -3.12873,-8.8306 -34.93807,-40.431 2.4094,-131.3194 26.87536,-163.87013 7.5122,-9.3849 14.05719,-21.5817 24.49404,-27.4265 l 4.8596,-2.6046 4.81833,3.5199 c 9.48947,6.9322 9.94903,8.9442 4.6152,20.2055 -5.81756,12.2827 -6.07934,13.015 -5.57973,15.6093 0.86909,4.5129 4.87471,3.5233 11.7428,-2.901 20.9334,-18.3295 39.04517,-73.9122 15.45999,-76.5751 -4.05867,0 -11.41992,-5.6695 -11.41992,-8.79536 0,-4.4673 18.57762,-33.4181 26.66666,-41.5565 53.72825,-48.4703 122.14888,-46.78747 108.70818,7.0907 -0.8376,7.821 -4.84,20.8282 -7.3628,23.9279 -19.38953,66.46566 -68.04145,125.92319 -95.87788,185.33329 -5.337,12.0518 -11.46602,23.8443 -16.6142,34.0265 -2.18851,4.387 -1.97752,4.5303 5.98018,4.0615 6.8352,-0.4027 18.70047,1.996 25.74254,5.204 27.61364,10.6886 44.8662,27.5565 54.95705,41.5226 10.47475,14.5958 12.47623,19.5812 17.21841,42.8885 0.4144,2.0367 0.86484,9.3843 1.00099,16.328 0.16336,8.3319 0.75889,12.6267 1.75141,12.6302 1.9108,0.01 10.1654,-3.4267 11.5233,-4.7931 0.5649,-0.5685 2.086,-1.1117 3.3801,-1.207 83.6628,-37.5609 157.4901,-51.2337 231.015,-89.1302 1.8821,-0.9822 5.1821,-2.2172 7.3333,-2.7444 20.37622,-8.339 30.45362,-11.831 47.14952,-17.5 11.9889,-4.0687 20.884,-4.0131 23.6143,0.1475 0.9988,1.5221 1.8935,6.1298 1.9882,10.2394 -0.988,14.987 -13.0601,23.3362 -23.1467,33.3265 -12.6916,12.642 -21.5832,20.4812 -28.9248,25.5009 -66.90722,52.7719 -145.74542,101.4034 -217.43612,129.0753 -27.0661,11.4863 -57.3525,16.3788 -83.33331,19.7045 -11.73333,1.5117 -26.66795,3.192 -33.18803,3.7339 l -11.85469,0.9854 -0.41548,3.9274 c -0.28137,2.6597 -2.37267,5.699 -6.47864,9.4156 -3.33475,3.0184 -6.07609,6.0511 -6.09192,6.7392 -0.0159,0.6882 -3.16581,3.5212 -7,6.2959 -3.83417,2.7747 -10.43556,8.3247 -14.66972,12.3333 -4.23416,4.0087 -8.21997,7.2886 -8.85735,7.2886 -0.63737,0 -1.48893,0.8601 -1.89234,1.9114 -0.45715,1.1912 0.11706,1.922 1.52401,1.9395 1.24161,0.016 6.75749,0.9647 12.25749,2.1093 5.5,1.1448 13.72914,2.4524 18.28698,2.906 7.91682,0.7879 8.4997,0.638 13.04964,-3.3569 9.73213,-8.5449 18.18785,-9.7559 35.52621,-5.0873 6.57816,1.771 8.22565,1.7874 13.03941,0.1293 6.78127,-2.3363 18.30112,-1.2495 23.60004,2.2265 3.6065,2.3659 3.8302,2.3619 7.88,-0.141 10.07557,-10.1997 26.86531,-4.3708 31.07187,-0.3927 7.2745,1.8652 8.65883,-1.0073 11.54583,-1.8761 7.30091,-4.1503 25.51712,-0.1589 29.46382,2.7878 4.75035,6.3037 9.19763,3.2503 14.57898,1.1512 10.20072,-5.5171 20.91385,0.8143 31.03931,5.4394 2.90137,4.7735 6.6122,0.402 8,-0.1707 10.2653,-4.236 25.08689,-0.8499 31.93659,7.5785 1.2349,1.5194 1.72628,8.3062 9.04817,2.0148 14.91028,-13.7376 48.99997,2.5925 32.82823,34.6789 -11.23624,23.5699 -0.27088,-35.1435 -28.39505,-19.0728 2.98855,36.9131 -35.20655,30.4934 -26.71425,0.4963 2.86636,-6.632 -2.17827,-9.2565 -8.21989,-2.0999 -2.90609,29.9495 -21.20648,26.2627 -28.68321,15.2477 -2.8896,-4.6837 -4.4869,-14.4355 -2.8013,-20.5614 0.51518,-6.8669 -11.36664,-9.7856 -12.2617,0.1983 -3.07035,36.2992 -33.01887,30.6686 -29.8821,-6.0557 -6.21953,-2.2046 -8.44987,0.4102 -9.216,5.4281 -5.3111,33.8292 -34.32533,29.8755 -33.765,1.5719 1.70855,-12.8611 -8.64745,-11.5729 -8.68874,-5.9506 -0.5192,37.4178 -28.66591,39.2803 -29.43254,7.8688 0.7389,-3.1322 -2.56128,-4.7007 -6.1047,0.097 -6.23288,30.013 -39.90026,19.7923 -29.03397,-6.7091 2.08656,-4.3618 -0.35443,-6.1526 -8.38628,-6.1526 -6.26362,0 -7.17098,0.45 -13.67692,6.7827 -8.48751,8.2613 -12.20567,9.684 -15.47066,5.9195 -2.5687,-2.9618 -23.12294,-7.2655 -35.49757,-7.4327 -3.66667,-0.049 -6.96667,-0.4719 -7.33333,-0.9387 -1.28135,-1.6312 -34.66667,-4.7178 -34.66667,-3.205 0,0.7817 1.35,2.0137 3,2.7376 1.75036,0.7678 3.15528,2.7046 3.37276,4.6494 0.4622,4.1331 -9.64919,14.3538 -31.65791,32 -3.20118,2.5667 -6.48646,5.3244 -7.30064,6.1283 -0.81416,0.8039 -3.71542,2.5223 -6.44725,3.8187 -2.73183,1.2962 -4.96696,2.8217 -4.96696,3.39 0,0.5681 2.25,1.4534 5,1.9673 2.75,0.5139 5.73299,1.54 6.62887,2.2803 108.16895,42.2178 212.56061,72.3957 303.70451,104.6341 4.4,2.2417 11.8593,5.3967 16.5763,7.0109 48.7622,25.1961 20.0346,80.5458 -17.1055,86.391 -6.6562,2.3018 -22.3829,3.1834 -28.8042,1.6144 -72.2058,-13.5083 -247.77447,-97.4126 -363.33335,-124.5738 -1.83334,-0.1266 -4.66335,-0.6608 -6.28892,-1.1878 -10.35784,11.4948 -26.84699,25.0261 -35.36912,33.1933 -10.55378,10.1243 -18.83914,16.4688 -24.00863,18.3848 -3.19768,1.1852 -2.96145,2.2203 1.73796,7.6152 15.40866,23.9886 39.82141,45.9666 55.43207,66.4413 2.29696,-0.1254 3.62652,-0.1953 7.44038,-1.3642 18.28659,-6.0624 30.33661,-8.5223 47.09492,-7.3623 99.64604,6.0515 113.3249,101.052 97.34986,148.2852 -9.54271,46.7407 -39.02576,76.4832 -84.72186,87.5363 -33.84312,5.7188 -59.16151,-1.8179 -85.29973,-18.0944 z m 83.96741,2.6545 c 16.86132,-4.4705 36.10627,-7.5434 61.52044,-49.5024 31.85959,-57.7084 13.34288,-168.9264 -97.52044,-154.3971 -7.23913,1.9367 -17.89726,4.9305 -23.91912,11.7052 -3.85221,4.6416 -18.41253,0.6767 -16.75008,-4.5612 0.49001,-1.5438 -0.93248,-3.8188 -4.29924,-6.8753 -18.34096,-19.6608 -35.72305,-43.3357 -51.03156,-62.5639 -4.76667,-5.997 -12.26667,-14.7345 -16.66667,-19.4165 l -8,-8.5127 c -4.47387,2.8508 -8.14271,7.7236 -13.0816,9.788 -0.89894,0.3378 2.49426,4.847 7.83892,10.4172 18.13388,18.5637 36.14387,41.9894 51.42124,59.1552 22.38903,24.7252 30.1916,36.238 27.7065,40.8815 -0.67415,1.2596 -4.57682,6.0767 -8.6726,10.7044 -16.62682,18.7864 -22.77,45.4873 -18.65458,81.0808 3.18892,42.7239 32.62126,64.1005 64.10879,78.7308 10.27671,4.8637 33.14067,6.5368 46,3.366 z m -76.9948,-45.6128 c -28.39786,-31.2404 -28.17742,-72.1607 -13.59983,-100.2191 42.13852,-81.1067 122.68574,-45.6 134.79359,-19.3838 56.13997,99.2069 -46.18829,195.6176 -121.19376,119.6029 z m 116.43409,-32.6517 c 6.27755,-25.125 2.51842,-56.4229 -8.15271,-76.9426 -11.48372,-19.7272 -33.1039,-25.4365 -55.13189,-20.3524 -62.21949,13.567 -70.92828,87.3779 -44.59167,116.0743 35.86076,39.0741 99.44612,25.9599 107.87627,-18.7793 z m -32.33313,-42.6944 c -1.65085,-10.4748 -9.45775,-22.6556 -16.19861,-25.2743 -4.33923,-1.6856 -3.33619,-6.3689 2.15457,-10.0601 3.752,-2.5223 5.02072,-2.746 8.66667,-1.5283 9.64209,3.2201 13.8093,8.1944 19.62024,23.4199 2.48653,6.515 1.10278,23.8082 -2.15536,26.9362 -7.8203,6.1241 -11.42932,-9.5148 -12.08751,-13.4934 z M 161.82402,1650.0036 c 2.1107,-1.7861 3.8741,-4.9637 4.3722,-7.8788 0.7846,-4.5912 0.5967,-4.9379 -3.1181,-5.7537 -8.27502,-2.0088 -14.52445,8.3869 -10.54139,12.6963 2.2832,2.2832 5.26949,4.3361 9.28729,0.9362 z m 670.88466,-5.9933 c -0.4551,-1.2834 -1.7219,-3.3752 -2.8151,-4.6486 -3.405,-3.9662 -14.4031,-25.353 -27.5871,-53.6454 -2.0403,-4.3784 -3.8501,-9.7472 -4.0219,-11.9308 -0.2326,-2.9571 -1.2928,-4.3878 -4.1552,-5.607 -4.2593,-1.8142 -8.4737,-3.3866 -10.5095,-3.921 -0.7333,-0.1926 -3.9769,-1.3083 -7.208,-2.4795 -3.231,-1.1712 -6.1884,-1.8157 -6.5719,-1.4323 5.06293,8.7972 9.74694,20.0393 13.8235,29.3312 9.1743,20.2979 14.6138,31.1304 18.3924,36.6279 2.5293,3.6797 4.0973,7.6344 4.0973,10.3333 0,3.4892 0.552,4.3906 2.7334,4.4631 1.5033,0.051 6.6333,1.1665 11.4,2.4811 11.7637,3.2442 13.4414,3.302 12.4221,0.428 z m 24.5333,-1.1812 c 3.1412,-1.1996 5.7112,-2.9134 5.7112,-3.8083 0,-0.8948 -1.9607,-4.2633 -4.3572,-7.4855 -2.3965,-3.2221 -5.2465,-7.6584 -6.3333,-9.8584 -1.0869,-2.2 -2.4545,-4.6 -3.0392,-5.3333 -1.6967,-2.128 -5.7956,-9.7431 -12.3167,-22.882 -3.3345,-6.7185 -6.7881,-12.7876 -7.6748,-13.4868 -1.6966,-1.3381 -18.5399,-6.9645 -20.8491,-6.9645 -1.7667,0 -0.3903,3.4224 4.0219,10 1.9677,2.9333 6.3299,11.0333 9.6938,18 3.3639,6.9666 8.2324,15.869 10.8188,19.783 2.5863,3.914 4.7025,7.964 4.7025,9 0,1.036 0.5654,1.8836 1.2564,1.8836 0.691,0 2.941,2.9994 5,6.6654 2.059,3.6658 4.6235,6.6658 5.699,6.6666 1.0755,7e-4 4.5255,-0.9801 7.6667,-2.1798 z m -67.1441,-12.7266 c -1.3467,-2.434 -3.0982,-5.3256 -3.8924,-6.4256 -0.7941,-1.1 -3.1387,-5.9 -5.2102,-10.6666 -2.0716,-4.7667 -6.6784,-14.8843 -10.2376,-22.4835 -3.48512,-7.9237 -10.29763,-19.6169 -13.1959,-29.8272 -0.7512,-2.7375 -2.5769,-5.6255 -4.057,-6.4176 -4.5799,-2.4511 -29.6971,-10.5707 -30.43054,-9.8372 -0.38136,0.3813 0.0295,1.7145 0.913,2.9628 0.88352,1.2481 3.74162,6.7693 6.35134,12.2693 2.6097,5.5 5.62584,11.5 6.7025,13.3334 1.07667,1.8333 7.49735,14.5357 14.2682,28.2277 l 12.3106,24.8943 14,4.6136 c 7.7,2.5374 14.2084,4.4265 14.4632,4.198 0.2548,-0.2287 -0.6385,-2.4072 -1.9852,-4.8414 z m -537.39126,0.4276 c 2.0644,-0.8358 4.5959,-1.5198 5.6255,-1.5198 5.1387,0 22.7164,-7.1951 34.2877,-14.035 7.15,-4.2264 13,-8.1125 13,-8.6358 28.7986,-23.9584 60.2634,-48.9371 84.53837,-71.1984 100.51156,-87.4339 188.76738,-173.2763 275.45803,-251.123 7.41253,-5.3815 28.89125,-28.2296 36.87088,-39.2215 7.37616,-10.1607 10.68658,-17.5401 12.25198,-27.3114 -3.65812,-33.9451 -18.00736,-65.2604 -47.76684,-82.41 -9.14672,-5.0913 -35.64213,-3.5916 -49.2584,2.7881 -19.83112,7.6609 -37.54793,21.2912 -53.98593,32.4803 -102.29168,72.4431 -195.81578,146.5899 -279.60279,222.9516 -14.18965,11.2906 -19.88899,19.5658 -28.7473,27.3464 -35.5294,35.4197 -114.5494,88.9742 -100.4379,151.6547 0.9313,3.326 2.0652,6.0398 2.5199,6.0306 0.4547,-0.013 5.3267,-4.888 10.8267,-10.8416 9.5871,-10.3778 27.6576,-26.3577 34.6667,-30.6561 1.8333,-1.1243 5.3996,-2.7528 7.925,-3.6189 4.4845,-1.538 4.7396,-1.4266 10.9355,4.7793 3.4892,3.4947 8.0134,7.7455 10.0538,9.4461 3.3339,2.779 3.7605,4.0951 4.2097,12.9903 0.853,19.5011 -16.8458,31.3478 -25.7108,47.8955 -2.36483,4.3871 -5.5802,8.8534 -6.4779,13.4502 -0.6955,3.6831 -0.2406,3.9749 3.4791,5.5814 15.53779,6.7105 32.31569,7.8593 45.339,3.1779 z m 339.57992,-377.3819 c -10.27956,-5.8499 -19.75988,-14.8601 -23.2459,-22.0931 -2.41353,-5.0078 -2.87493,-7.9081 -2.48581,-15.6252 0.56975,-11.2989 3.11912,-16.3411 10.06504,-19.9069 3.63626,-2.435 16.97459,-12.5824 17,-5.8299 0,2.2248 0.98209,3.1803 3.86057,3.756 2.4006,0.4801 5.73884,3.0643 8.82728,6.8333 5.64367,6.8873 8.20536,7.4542 12.59092,2.786 3.78505,-4.6648 9.96681,-6.6998 13.3879,-11.3877 0,-0.5319 -3.33159,-2.2419 -7.40354,-3.8002 -6.75874,-2.5864 -8.2866,-2.7018 -17.54321,-1.325 -9.33313,1.3881 -10.28349,1.3114 -11.94777,-0.9647 -2.491,-3.4066 -1.74804,-4.8565 3.93229,-7.6737 4.8912,-2.4258 18.22387,-3.1965 26.74287,-1.5459 10.69228,2.0718 24.03722,11.6358 28.6893,20.561 4.26167,8.1762 6.96722,20.3894 6.27524,28.3273 -0.33965,3.8962 -0.69217,7.0841 -0.78338,7.0841 -0.0912,0 -0.36978,1.07 -0.61903,2.3778 -0.53719,2.8184 -4.59409,10.7665 -9.30297,18.2258 -4.26388,6.7545 -14.25792,12.1066 -22.32882,11.9578 -14.5274,-0.095 -24.14203,-5.1498 -35.71098,-11.7568 z m 35.39906,-1.5776 c 0.48939,-0.7919 -1.13214,-3.3419 -3.60338,-5.6667 -2.47126,-2.3248 -5.66466,-6.462 -7.09646,-9.1938 -2.62073,-5.0002 -5.82672,-7.3758 -7.25929,-5.379 -0.42529,0.5928 -3.77327,2.5631 -7.43993,4.3785 -3.66667,1.8154 -6.91299,3.447 -7.21406,3.6258 -0.97176,0.5773 4.24314,5.6749 5.80546,5.6749 0.83128,0 3.88829,1.2275 6.79334,2.7278 8.68891,4.4874 18.45395,6.3572 20.01432,3.8325 z m 12.78211,-13.0232 c 3.45184,-9.0441 5.11725,-18.4926 4.31952,-24.5062 -0.46433,-3.5003 -1.38891,-6.3643 -2.0546,-6.3643 -1.92059,0 -18.44672,13.6574 -18.44036,15.2393 2.61408,6.8039 8.78481,10.7679 11.28364,17.9556 1.08665,3.4237 3.05489,2.4885 4.8918,-2.3244 z m -40.79811,-21.6176 c -0.15002,-3.7522 -5.33625,-13.2876 -7.61964,-16.6582 l -2.90322,-4.237 -2.9224,3.4879 c -3.61419,4.3134 -6.2203,15.9182 -5.12,22.7991 l 0.82381,5.1519 5.08837,-2.6522 c 1.9663,-1.3052 12.36525,-7.4528 12.65308,-7.8915 z m 277.66788,411.7143 c 4.3029,-4.5801 4.7803,-12.161 1.0485,-16.6488 -4.27,-5.135 -6.0994,-8.9544 -6.0994,-12.7341 -2.26459,-7.8243 -18.06069,-11.6796 -25,-13.6869 -1.65,-0.4812 -3,-0.4986 -3,-0.039 0,0.4603 2.8926,5.4803 6.428,11.1555 3.5355,5.6753 6.8317,11.2188 7.3249,12.3188 1.369,3.053 3.8389,6.8021 8.3451,12.6666 2.2539,2.9334 4.4851,6.3834 4.9582,7.6667 1.1456,3.108 2.5744,2.9413 5.9947,-0.6995 z m -687.71206,-13.3005 c 3.7483,-19.7235 21.1612,-30.5228 28.0385,-47.116 2.9916,-7.8684 0.1769,-16.5507 -5.3655,-16.5507 -5.7153,0 -46.6786,39.1224 -46.6786,44.5808 0,1.7914 7.7758,10.2574 18.6243,20.2778 2.9425,2.7177 5.3751,2.179 5.3813,-1.1919 z m 544.25396,-22.7511 c -12.72367,-25.3476 -15.57334,-31.4745 -21.6181,-46.4798 -2.88613,-7.1644 -4.49853,-8.6546 -10.64141,-9.8348 -1.1,-0.2114 -5.29153,-1.6331 -9.31451,-3.1592 -8.89545,-3.3748 -9.72522,-3.42 -8.10689,-0.4418 4.14652,7.6311 20.00975,41.825 21.38369,46.0934 4.7372,6.0001 6.66505,12.7744 9.65722,18.8814 3.94328,7.9966 2.83349,8.0979 7.95805,9.5996 8.61535,4.9797 14.21194,9.524 22.68195,11.0267 0.5094,0.036 -4.89062,-11.5224 -12,-25.6855 z m -36.2598,-4.9156 c -2.27487,-3.3953 -15.45842,-31.9528 -21.23594,-46 -3.01613,-7.3333 -5.94366,-14.1642 -6.50564,-15.1798 -0.56196,-1.0155 -5.43334,-2.9923 -10.82529,-4.3928 -5.39195,-1.4006 -11.8934,-3.4196 -14.44768,-4.487 -5.60052,-2.5846 -18.91038,-4.9228 -27.88935,-8.607 -2.23494,0 -2.30333,3.5214 -0.0959,4.9337 1.35948,0.8697 6.41325,9.86 6.97028,12.3996 0.0804,0.3667 2.01204,4.3613 4.29246,8.8772 2.28043,4.5157 4.57519,9.6157 5.09946,11.3333 5.36909,8.5527 7.45594,17.7809 10.9943,25.4138 1.99627,4.284 3.55787,5.4216 11.49292,8.3728 5.05051,1.8784 9.38238,3.2156 9.62635,2.9716 0.24399,-0.244 -2.45504,-6.427 -5.99783,-13.7399 -3.54278,-7.3131 -6.89254,-14.7812 -7.44392,-16.5959 -0.8552,-2.8148 -3.5555,-8.5962 -8.8499,-18.9481 -2.71099,-5.3007 -0.60331,-12.4015 3.24293,-10.9256 3.82935,1.4695 11.3722,15.4577 33.07951,61.3461 1.72068,3.6374 4.15978,6.1954 7.36482,7.7238 3.62059,1.6247 7.34843,1.8431 10.25462,3.5901 7.65524,3.8271 3.35744,-4.3155 0.8738,-8.0859 z M 412.9532,1559.0231 c 8.67709,-7.3573 14.59916,-12.1021 25.69818,-20.9415 4.529,-3.1261 2.53461,-4.8929 2.53461,-4.8929 -0.86136,0.137 -3.36612,-0.507 -5.56612,-1.4314 -8.34495,-3.5058 -10.51055,-3.1762 -15.47659,2.3556 -10.36796,12.8436 -33.87448,26.094 -41.02213,37.9072 -0.37991,1.0023 5.88785,8.499 7.45275,8.9139 8.29124,-7.2384 18.58275,-14.6488 26.3793,-21.9109 z m 216.68223,10.3205 c -8.53964,-16.4174 -15.11691,-34.856 -22.68223,-49.7943 -3.66666,-7.2166 -6.66666,-13.9565 -6.66666,-14.9777 0,-1.814 -17.44632,-8.2537 -19.85778,-7.33 -1.04713,0.4012 5.73994,18.5228 11.64859,31.102 1.37783,2.9333 3.85824,8.7833 5.51203,13 2.98654,5.7023 11.30766,23.2455 15.08669,23.7656 1.61909,0.055 5.3438,1.2099 8.27713,2.5677 5.79563,2.683 8.65787,3.2324 8.68223,1.6667 z m -40.48939,-20 c -4.79232,-9.5691 -19.52617,-45.9775 -19.52617,-48.2507 0,-0.7433 -1.17412,-3.2822 -2.60917,-5.642 -2.02227,-3.3253 -4.53488,-4.9389 -11.1703,-7.1737 l -8.56113,-2.8833 3.83697,7.7333 c 2.11032,4.2535 2.1014,4.7884 3.83696,8.3236 5.89463,11.5533 10.45955,25.1909 16,36.6777 2.2,4.5416 5.4013,12.3423 5.54273,12.6749 0,0 6.21701,5.706 9.69967,6.1113 7.46415,2.1682 7.62342,1.7596 2.95044,-7.5711 z m -28.23936,-2.9247 c 0.42764,-0.692 -1.33696,-5.8358 -3.9213,-11.4308 -2.58436,-5.5949 -4.69884,-10.388 -4.69884,-10.6513 0,-0.4695 -9.71522,-21.1668 -17.68835,-37.6833 -3.08444,-6.3895 -4.85152,-8.5344 -7.50623,-9.1114 -1.90965,-0.415 -5.27209,-1.5656 -7.47209,-2.5569 -2.2,-0.9912 -8.18599,-3.3931 -13.3022,-5.3373 l -9.30221,-3.535 -4.3824,4.782 c -15.21738,12.4363 -26.57677,24.2704 -42.67986,36.8083 -3.85,2.9652 -7,5.8345 -7,6.3764 0,1.5393 18.06096,6.6415 31.56362,8.9164 6.72665,1.1333 17.52665,3.8691 24,6.0796 26.77146,9.1419 35.57912,11.9031 36.1493,11.3328 0.53154,-0.5315 -2.21978,-9.9092 -5.1044,-17.3981 -4.23276,-10.989 -5.27518,-14.5356 -5.27518,-17.9483 -2.2156,-6.9736 8.84928,-4.8409 9.33333,-1.3444 0,0.5079 2.30717,5.1207 5.12704,10.2507 5.04521,9.1785 8.18657,18.5844 8.22671,24.6324 0.0303,4.5605 1.78324,6.5536 6.80724,7.7396 6.27901,1.4824 6.2584,1.4821 7.12582,0.079 z m -35.28681,-93.3373 c 0,-0.6941 3.45,-3.4737 7.66667,-6.1768 11.15632,-7.1519 15.25062,-10.4831 38.55168,-31.3673 1.58676,-1.4222 4.73676,-3.2314 7,-4.0203 7.29832,-2.5441 4.14289,-5.6516 -6.94659,-6.8408 -7.13508,-0.7652 -8.71827,0.2331 -23.79189,15.0005 -11.82269,12.1143 -24.12918,21.0086 -36.14408,31.2734 l 3.8321,1.6365 c 4.61916,1.9727 9.83211,2.2349 9.83211,0.4948 z m -319.42725,-10.1417 5.2394,-4.6262 -2.7281,-4.985 c -27.964,-40.0118 -49.5878,-91.6525 -73.3195,-126.0724 -2.5038,-3.5314 -4.5904,-8.0314 -4.6371,-10 -0.09,-3.8005 2.4595,-21.0373 3.5524,-24.0165 0.3572,-0.9738 0.9829,-5.5411 1.3904,-10.1495 l 0.741,-8.379 -8.9651,-9.8505 c -10.9833,-7.5643 -45.496398,-49.4862 -54.419698,-50.0194 -2.7308,1.5323 -13.5743,9.3586 -19.2239,13.8749 l -3.1307,2.5027 4.2077,17.229 c 11.1532,45.6675 11.21844,43.3601 15.015989,53.4105 1.865923,4.6721 0.176328,10.4477 7.523711,11.9413 4.6877,1.0188 17.775,6.0031 19.774,7.5308 0.8763,0.6698 2.976298,1.0217 4.666698,0.782 2.8163,-0.3992 3.0368,-1.0004 2.6359,-7.1863 -0.3397,-5.242 0.2563,-7.8927 2.6667,-11.8606 6.8449,-11.268 14.1351,-15.6031 17.0572,-10.1431 2.4105,4.504 1.5215,7.2817 -4.0647,12.7009 -2.9935,2.9039 -6.3084,6.9539 -7.3664,9 -1.0581,2.0461 0.83537,3.5775 -2.38753,7.2976 4.96403,1.4344 6.25631,3.7764 8.53223,7.7622 19.1742,34.7352 44.5919,70.7408 60.8025,102.3374 8.2123,16.7108 19.0322,35.6801 20.3062,35.6008 0.4902,-0.031 3.249,-2.1374 6.1307,-4.6816 z m 402.11209,-54.9703 c 0.0107,-1.2959 6.2418,-7.3155 14.33333,-13.8457 7.87334,-6.3542 18.21516,-15.1876 22.98183,-19.6299 4.76667,-4.4423 9.11667,-8.0934 9.66667,-8.1136 0.55,-0.02 1,-0.9368 1,-2.0368 0,-1.5327 -1.69496,-2 -7.25464,-2 -3.99006,0 -7.62547,-0.6 -8.0787,-1.3333 -1.72064,-2.7841 -5.71076,-1.1379 -9.91113,4.0889 -2.39659,2.9822 -6.78741,7.1825 -9.7574,9.334 -9.17151,6.6437 -35.83709,32.2724 -34.72059,33.3704 0.58068,0.5711 3.75579,1.2261 7.05579,1.4559 3.3,0.2296 7.95,0.5492 10.33333,0.7101 3.31663,0.2241 4.3376,-0.2452 4.35151,-2 z m -327.97329,-23.8093 c -0.8626,-3.5659 -2.6662,-14.8834 -4.0079,-25.15 -1.3417,-10.2667 -4.3832,-29.7667 -6.7589,-43.3334 -6.9167,-40.6175 -13.8145,-76.9275 -20.5818,-116.6666 -1.2428,-7.3334 -2.7797,-14.8334 -3.4153,-16.6667 -2.3475,-6.7713 -3.011,-18.7674 -1.2229,-22.1086 4.98926,-7.3891 8.31008,-10.4957 13.7075,-15.1264 11.688,-11.6341 13.45414,-23.3018 7.6367,-37.4822 -5.3281,-11.399 -16.47944,-22.5626 -27.5323,-22.6161 h -7.05 l -0.41,5.6567 c -0.3335,4.6017 -1.0691,5.9711 -3.9439,7.3424 -4.7629,2.272 -6.6571,1.2655 -9.7562,-5.1839 -1.443,-3.0028 -5.177,-8.8396 -8.2978,-12.9708 -21.19947,-28.3228 -40.73067,-60.91703 -60.7622,-86.17773 -0.6243,-0.7333 -4.298,-5.639 -8.1639,-10.9015 -9.70515,-12.1053 -19.24457,-25.97194 -28.1526,-36.4111 -5.1334,-6.001 -10.1025,-12.3606 -11.0426,-14.1325 -2.821898,-5.3187 -4.290798,-3.6829 -4.290798,4.7784 0,4.4 0.54,8 1.2,8 1.0861,0 6.974798,5.6267 12.133398,11.5936 1.1,1.2724 3.725,5.0344 5.8334,8.3599 2.1083,3.3256 4.2615,6.3465 4.7848,6.7132 0.5233,0.3667 4.189,5.4667 8.146,11.3333 3.957,5.8667 10.5297,14.8667 14.6061,20 4.0763,5.1334 10.0856,13.0884 13.3539,17.67793 7.5565,10.6113 25.8997,34.5264 36.6091,47.7296 7.7357,9.537 12.5814,17.3017 13.4175,21.5001 0.4645,2.3326 1.7498,4.5883 2.8561,5.0129 1.6562,0.6355 1.8778,2.7121 1.2544,11.759 -2.28123,17.8938 -1.67371,22.8655 10.2568,33.4067 6.3592,5.5473 7.3634,7.1111 8.1057,12.6227 1.9515,14.4905 3.806,25.6563 6.1383,36.9577 12.8674,62.3565 22.6587,132.3346 28.5267,188 0.3761,3.6667 1.2931,10.8667 2.0377,16 0.7447,5.1334 1.3658,9.8872 1.3804,10.5642 0.014,0.6768 3.3894,-2.1056 7.4997,-6.1834 l 7.4733,-7.414 z m -52.2765,-250.8608 c -4.0354,-0.5057 -7.7431,-5.3193 -8.6811,-11.2707 -0.7226,-4.5855 1.6298,-11.1634 4.3681,-12.2142 1.0329,-0.3963 1.8779,-1.6112 1.8779,-2.6997 0,-4.0154 3.0998,-8.5954 6.5007,-9.605 6.8994,-2.0482 12.3519,-1.477 13.7072,1.436 0.6988,1.5021 2.3413,4.7621 3.65,7.2444 1.9625,3.7228 2.1627,5.708 1.1426,11.3334 -1.4112,7.7826 -2.5427,9.5033 -8.1588,12.4075 -5.4268,2.8063 -10.1249,3.9047 -14.4066,3.3683 z m 441.56495,213.0065 c 9.9,-0.7504 31.2,-3.2196 47.33333,-5.4871 108.20938,-13.8867 217.97098,-84.8208 286.2034,-142.6445 3.9215,-3.393 9.6674,-8.193 12.7685,-10.6666 16.8612,-13.4487 30.7905,-27.1797 29.193,-28.7772 -0.3149,-0.3149 -3.4808,0.6138 -7.0353,2.0637 -3.5545,1.4499 -10.0628,4.036 -14.4629,5.7469 -4.4,1.7109 -8.3001,3.4164 -8.6668,3.7899 -0.3666,0.3736 -1.5645,0.8785 -2.662,1.1221 -2.9085,0.6456 -5.3379,2.9456 -5.3379,5.0537 0,1.0102 -0.4989,1.6867 -1.1088,1.5034 -61.97172,59.239 -128.80682,103.0071 -202.22452,130.2988 -7.3333,2.6756 -17.9142,6.6441 -23.5129,8.819 -16.2316,6.3053 -50.42095,17.131 -59.25051,18.7611 -13.30271,2.456 -25.74272,-0.9061 -20.97899,-5.6699 1.22251,-1.2225 11.31482,-5.21 27.07572,-10.6976 4.03334,-1.4043 8.37519,-3.1439 9.64858,-3.8657 1.27338,-0.7218 3.20489,-1.3124 4.29222,-1.3124 79.25048,-23.3025 164.79938,-71.8061 223.05918,-119.6702 3.1167,-2.5581 5.6667,-5.2522 5.6667,-5.987 0,-0.8556 -0.5993,-0.8804 -1.6667,-0.069 -0.9167,0.6968 -4.6667,2.3739 -8.3333,3.7267 -45.2307,20.4221 -95.907,35.3565 -137.3333,53.4682 -36.6907,11.5093 -64.8712,25.009 -99.33338,37.1828 -5.5,1.9302 -11.8,5.178 -14,7.2174 -2.2,2.0394 -5.95,5.044 -8.33333,6.6769 -7.46693,10.3765 -14.67584,15.5348 -22.33333,22.2204 l -6.66667,5.8456 6.25464,0.027 c 3.44005,0.015 6.57757,0.55 6.97225,1.1886 0.3947,0.6386 2.57268,1.5321 4.83999,1.9856 3.3364,0.6673 4.04077,1.3992 3.69441,3.8389 -0.37865,2.667 -1.27296,3.0503 -7.76129,3.3265 -4.03333,0.1716 -10.03333,0.4782 -13.33333,0.6812 -4.11084,0.2529 -6.50364,-0.2652 -7.59956,-1.6454 -1.36746,-1.7223 -2.71968,-0.9021 -9.31884,5.6521 -4.2456,4.2166 -6.8258,7.6652 -5.73378,7.6634 1.09203,0 10.08551,-0.6172 19.98551,-1.3677 z M 337.83759,1216.3982 c 1.17929,-2.5882 1.06443,-3.9341 -0.54543,-6.3911 -23.03024,-23.6923 -42.63604,-57.1471 -62.64514,-76.7123 l -3.3029,-3.0488 -3.5288,4.6265 c -4.1583,5.4519 -4.2987,6.6287 -1.1955,10.0241 1.2834,1.4041 5.3334,6.0179 9,10.2528 14.0477,14.0547 26.2278,30.172 38.3334,44.5036 2.3833,2.7313 6.0467,7.2014 8.1408,9.9335 4.0845,3.7463 12.17337,14.4847 15.74357,6.8117 z M 51.884522,1192.2088 c 2.0544,-1.9075 5.8354,-4.5587 8.402,-5.8915 3.9146,-2.0327 4.2827,-2.5742 2.284,-3.36 -1.3104,-0.5153 -3.2913,-2.6941 -4.402,-4.8419 l -2.0194,-3.9051 -6.5302,5.4675 c -3.5916,3.007 -6.3108,6.187 -6.0427,7.0666 0.2682,0.8796 0.8491,3.2492 1.291,5.2659 0.999,4.559 2.2818,4.5953 7.0173,0.1985 z M 573.0361,1140.9912 c 2.88774,-1.4772 6.15044,-3.2552 7.25044,-3.9511 8.21888,-5.1996 29.98886,-15.856 33.88588,-16.5871 3.5013,-0.6569 4.78078,-1.5776 4.78078,-3.4404 0,-2.6632 2.66102,-9.523 4.13866,-10.669 0.83497,-0.6476 6.14582,-10.5122 20.4582,-38 39.90673,-88.05533 80.25165,-129.40863 98.69724,-206.21689 -0.49068,-9.0573 -2.03547,-12.2932 -7.06692,-14.8032 -8.02875,-4.0053 -31.09542,1.5506 -52.22718,12.5794 -14.59882,7.6193 -24.65961,17.3418 -33.34564,32.2245 -5.91297,10.1314 -5.94448,10.2163 -3.79417,10.2163 2.98407,0 12.89935,7.23276 15.15884,11.05786 4.94075,8.364 6.01647,16.3892 3.85683,28.7735 -6.93209,35.8041 -57.90842,99.18713 -70.78656,56.48 -2.24803,-4.1035 -2.25839,-4.7097 -0.17922,-10.4917 1.21368,-3.3751 1.69196,-5.6152 1.06283,-4.9781 -3.54264,3.5876 -25.30624,35.71703 -25.30624,37.35943 0,0.6444 -1.10896,3.2628 -2.46437,5.8187 -11.32505,26.8912 -17.88383,60.8138 -14.18008,84.1941 2.75517,17.211 4.70664,22.5216 11.2741,30.6807 2.43236,3.0219 2.3941,3.0229 8.78658,-0.247 z m -375.41628,-65.2223 c 0,-0.6828 -3.2914,-4.7328 -7.3144,-9 -4.0229,-4.2672 -7.3229,-8.1536 -7.3333,-8.6364 -0.011,-0.4828 -2.8559,-4.3828 -6.3233,-8.6667 -3.4674,-4.2839 -6.784,-8.3889 -7.3702,-9.1222 -2.3851,-2.9835 -12.4601,-16.5307 -14.3254,-19.2625 -3.1801,-4.6572 -19.9315,-27.13593 -22.4091,-30.07083 -8.309,-11.9276 -17.4512,-22.6138 -25.2993,-35.1985 -1.9937,-3.2258 -5.0034,-7.4258 -6.6882,-9.3333 l -3.063298,-3.4682 0.7403,9.1097 c 2.173858,9.43796 -2.4281,30.3478 32.727798,80.89033 4.399,5.1805 2.5135,2.3312 4.399,5.1805 8.393,8.578 27.3822,26.1002 39.5928,30.7212 5.31493,1.9779 11.10329,4.0783 16,5.7419 3.3,1.1196 6.15,2.1077 6.3333,2.196 0.1833,0.088 0.3333,-0.3982 0.3333,-1.081 z m 35.2401,-23.798 c 0.7018,-2.2112 -0.1012,-12.557 -3.1276,-40.294 -8.7116,-57.27983 -17.6008,-117.20954 -25.9815,-143.65779 l -3.4643,-2.9911 0.026,2.9911 c 0.014,1.6452 0.6736,7.1912 1.4646,12.3246 1.7427,11.31 2.0972,13.9151 3.1757,23.3333 0.4618,4.03326 1.0558,8.83326 1.32,10.66666 5.2072,39.1563 11.8661,82.1966 18.7451,117.10763 1.7975,9.0426 3.2682,17.8926 3.2682,19.6667 0,3.7745 3.4423,4.4165 4.5734,0.8529 z m 24.3126,-1.9606 c 4.9213,-5.2324 7.8672,-10.5391 9.8073,-17.6667 0.7985,-2.9333 2.3025,-8.4489 3.3424,-12.2569 1.9266,-7.0555 2.8183,-26.37683 1.4958,-32.40973 2.69238,-23.43657 -22.0026,-70.29892 -42.9524,-88.07266 -1.8481,-1.5338 -2.0143,-1.1317 -1.4483,3.5034 7.9741,39.38686 9.6856,81.19916 16.047,119.90259 2.4265,14.3981 3.3947,23.9108 2.7109,26.6354 -0.15192,8.0344 7.98601,3.5443 10.9973,0.3646 z" fill="#030303" transform="translate(159.32118,15.230653) matrix(0.26458333,0,0,0.26458333,-165.70038,-234.24026)"/>
</svg>