<?xml version="1.0" ?><svg xmlns="http://www.w3.org/2000/svg" viewBox="0 0 188.72426 186.45877" height="186.45877mm" width="188.72426mm">
    <path transform="translate(110.33619,-111.771) matrix(0.26458333,0,0,0.26458333,-4331.038,-3204.3596) translate(-3313.5291,-2437.8203)" d="m 19412.258,14980.734 c -4.226,-0.22 -7.418,3.671 -7.705,12.061 -0.656,19.177 -8.852,149.58 -8.852,149.58 l -86.654,-16.229 45.676,50.157 c 0,0 -30.377,65.298 -40.758,97.652 -10.381,32.355 -35.952,91.164 26.006,114.471 61.958,23.307 116.267,-30.879 147.957,-75.428 31.689,-44.549 19.779,-114.273 19.779,-114.273 0,0 6.555,-3.64 29.066,-49.762 22.51,-46.123 -0.109,-60.088 -0.109,-60.088 0,0 -41.851,61.76 -46.441,70.906 -4.589,9.146 -12.785,11.997 -14.424,7.965 -1.639,-4.032 -37.481,-143.383 -46.113,-166.592 -4.857,-13.055 -11.995,-20.136 -17.428,-20.42 z m 195.183,360.405 c -29.133,-0.09 -46.331,16.035 -59.492,36.195 0,0 -31.362,50.254 -24.914,88.41 6.447,38.157 79.099,77.157 149.596,76.412 70.497,-0.745 101.078,-30.584 111.787,-63.332 10.708,-32.748 -45.02,-85.558 -115.283,-120.076 -25.251,-12.405 -45.35,-17.559 -61.694,-17.609 z" color="#000" overflow="visible" fill="#fff" paint-order="fill markers stroke"/>
    <path d="m 16447.685,13223.6 c -3.369,-12.281 -3.101,-22.321 -3.874,-38.195 -2.675,-49.079 -7.319,-80.513 -12.173,-82.376 -8.744,-3.355 -10.952,0.848 -8.538,16.255 1.279,8.178 3.4,28.15 4.704,44.382 3.284,40.869 -1.073,51.952 -15.747,40.067 -5.308,-4.298 -5.966,-7.475 -6.474,-31.23 -0.296,-21.11 -2.445,-41.985 -4.978,-62.9 l -13.542,2.124 c -21.447,7.053 -37.4,4.16 -71.381,5.803 0.35,1.699 -4.638,27.906 -1.391,55.179 l 2.535,47.088 c -9.16,8.18 -14.397,8.42 -20.132,2.94 -7.061,-6.768 -6.635,-17.731 -6.709,-37.762 0,-21.145 2.073,-74.311 -1.38,-79.895 -13.44,-5.665 -28.507,-14.581 -40.207,-18.172 -2.251,2.25 -4.007,54.205 2.126,73.096 7.694,23.711 2.185,29.129 -4.781,33.522 -8.145,5.129 -11.065,-6.455 -16.274,-29.643 -4.332,-34.81 -10.486,-64.496 -4.791,-93.548 -9.055,-8.524 -14.923,-21.634 -20.7,-34.39 -9.933,-22.46 -5.782,-65.183 8.727,-89.772 4.719,-7.999 4.917,-9.863 1.715,-16.205 -3.807,-7.552 -16.382,-47.228 -18.915,-59.658 -0.824,-4.02 -2.361,-7.249 -3.431,-7.175 -1.072,0.08 -5.429,7.548 -9.693,16.611 -8.868,18.854 -38.809,50.438 -62.984,66.44 -51.698,34.22 -110.597,27.219 -138.281,-16.437 -6.407,-10.098 -7.595,-14.761 -7.595,-29.761 0,-23.518 13.546,-70.675 26.659,-92.801 12.022,-20.288 15.185,-26.578 13.358,-26.578 -3.473,0 -23.24,22.578 -28.241,32.254 -6.691,12.946 -11.963,16.209 -17.757,10.985 -6.46,-5.828 -5.844,-11.097 2.905,-24.779 10.035,-15.694 26.731,-32.508 42.26,-42.553 l 12.643,-8.18 -10.509,1.741 c -11.378,1.884 -24.723,8.039 -40.206,18.546 -5.407,3.669 -10.772,6.671 -11.924,6.671 -3.473,0 -10.45,-8.091 -10.45,-12.118 0,-7.002 39.295,-28.644 56.806,-31.286 5.664,-0.854 10.871,-2.128 11.577,-2.831 0.7,-0.704 -2.736,-4.828 -7.641,-9.166 -33.73,-29.835 -32.797,-28.692 -29.435,-36.068 3.298,-7.239 8.751,-8.495 31.15,-7.175 11.387,0.671 34.904,8.487 46.952,15.604 4.054,2.396 8.303,3.421 9.447,2.28 1.135,-1.142 2.371,-21.41 2.742,-45.043 1.135,-73.047 2.611,-89.542 9.125,-101.93 12.715,-20.443 26.137,-14.742 33.662,-7.579 7.392,7.038 17.517,23.937 23.277,62.553 12.421,49.944 24.011,88.429 26.996,112.734 0.723,0.723 7.135,-10.295 14.253,-24.482 7.115,-14.186 17.881,-31.538 23.924,-38.559 9.837,-11.43 11.994,-12.681 20.617,-11.96 8.021,0.671 10.388,2.359 14.162,10.108 8.53,17.506 4.247,44.452 -11.053,69.549 -2.971,4.87 -5.404,9.553 -5.411,10.404 0,0.85 6.317,1.022 14.047,0.382 10.704,-0.887 14.903,-0.144 17.602,3.104 5.035,6.066 -0.702,12.24 -11.387,12.252 -9.902,0 -23.096,7.597 -35.587,20.463 -5.006,5.154 -8.095,8.936 -6.861,8.403 1.239,-0.532 11.486,-5.525 22.783,-11.093 11.296,-5.568 24.818,-10.819 30.047,-11.667 14.954,-2.427 27.349,6.351 23.421,16.589 -1.22,3.192 -4.049,3.73 -12.74,2.426 -8.791,-1.318 -14.077,-0.27 -24.866,4.937 -14.042,6.774 -36.195,22.854 -34.215,24.835 0.598,0.609 8.14,-2.563 16.735,-7.046 8.598,-4.484 21.963,-10.011 29.706,-12.282 12.898,-3.784 14.637,-3.763 20.761,0.248 9.984,6.543 6.921,12.038 -9.591,17.198 -8.036,2.513 -20.854,7.757 -28.481,11.654 -14.564,7.443 -23.235,8.903 -26.03,4.385 -0.929,-1.487 -2.781,-2.014 -4.145,-1.174 -3.789,2.344 -2.945,9.578 1.713,14.737 3.956,4.37 5.854,3.796 33.028,-10.012 23.821,-12.104 30.273,-14.331 37.151,-12.821 7,1.538 8.194,2.908 7.505,8.625 -0.866,7.262 -3.027,8.84 -19.019,13.918 -5.625,1.789 -15.555,6.845 -22.066,11.239 -11.565,7.804 -16.489,8.389 -28.47,3.38 -4.449,-1.86 -4.751,-1.158 -3.009,6.967 2.487,11.612 2.182,11.42 11.037,6.903 4.153,-2.12 20.504,-8.258 36.33,-13.641 30.655,-10.425 36.342,-10.068 36.342,2.28 0,7.276 -4.764,12.171 -11.828,12.151 -2.996,0 -16.492,3.879 -29.992,8.638 -20.803,7.335 -25.355,8.143 -29.898,5.308 -7.061,-4.407 -7.016,-1.37 0.308,20.77 7.056,21.338 8.468,22.907 16.128,17.925 30.079,-19.426 81.597,-29.892 116.767,-4.16 24.276,15.288 50.091,26.259 72.663,44.324 10.978,8.9 20.473,16.181 21.105,16.181 0.642,0 2.586,-4.485 4.343,-9.967 5.178,-16.165 24.774,-40.324 53.559,-66.028 20.536,-18.341 41.345,-25.304 80.722,-27.015 23.483,-1.02 30.57,0.777 37.544,2.924 20.213,6.221 11.593,29.913 -4.543,21.666 -28.639,-13.123 -95.664,-3.148 -136.892,59.325 0.618,0.627 15.165,-5.73 32.306,-14.13 55.789,-27.335 92.999,-35.623 116.459,-30.307 16.148,3.658 37.309,23.908 2.227,18.333 -19.019,-3.078 -22.387,-2.888 -41.313,2.317 -26.937,7.408 -89.539,35.955 -86.194,39.303 0.743,0.747 3.555,0.186 6.241,-1.245 11.906,-6.353 55.323,-19.295 69.277,-20.652 20.137,-1.956 53.24,4.317 66.895,13.353 19.925,13.187 18.638,32.6 0.404,21.031 -13.748,-9.789 -35.512,-14.217 -54.141,-14.217 -11.476,0 -49.271,9.3 -53.11,13.068 -1.178,1.15 7.733,2.915 19.789,3.92 52.704,4.395 81.165,17.151 69.27,31.044 -3.55,4.145 -4.764,4.203 -13.294,0.64 -47.581,-14.768 -99.39,-13.302 -139.896,2.453 8.925,31.782 6.149,48.342 -25.209,75.122 l 6.514,38.36 c 3.583,21.098 5.924,36.538 6.512,54.179 3.608,18.303 8.947,47.029 1.942,53.414 -12.381,10.573 -20.169,1.013 -22.13,-9.948 z m -53.636,-137.269 c 30.691,-6.786 34.998,-9.189 32.679,-18.248 -0.991,-3.891 -2.434,-11.56 -3.202,-17.041 -2.558,-16.802 15.152,-9.454 19.099,-1.994 5.251,10.158 8.052,10.063 11.7,-0.396 4.458,-12.791 3.485,-23.523 -3.493,-38.513 -11.762,-25.256 -38.803,-48.898 -78.143,-68.318 -34.966,-18.59 -58.591,-35.306 -92.145,-26.893 -41.876,12.154 -67.039,62.403 -60.029,100.898 3.677,18.364 12.009,32.466 25.062,42.423 10.732,8.184 39.307,23.182 40.98,21.507 0.642,-0.636 -0.412,-7.285 -2.332,-14.773 -1.733,-19.353 24.61,-14.469 25.909,11.886 1.9,13.791 2.021,13.843 36.81,14.285 14.926,0.187 32.64,-1.624 47.105,-4.822 z m -311.558,-146.113 c 10.819,-3.997 11.89,-5.164 11.21,-12.246 -1.963,-20.434 -15.027,-32.257 -44.056,-39.872 -15.775,-4.138 -20.343,-4.344 -33.953,-1.534 -8.646,1.786 -16.89,2.526 -18.315,1.646 -4.287,7.553 -2.595,15.581 -2.595,25.504 l 10.096,-0.597 c 5.554,-0.328 11.534,0.293 13.291,1.379 4.867,3.009 3.811,9.114 -2.124,12.291 -2.925,1.565 -5.313,3.711 -5.313,4.77 0,6.996 34.229,16.771 50.495,14.421 5.116,-0.739 14.685,-3.332 21.264,-5.762 z m -39.402,-14.265 c -9.289,-9.887 -6.257,-15.111 8.77,-15.111 9.27,0 13.586,16.418 5.164,19.649 -6.466,2.482 -7.728,2.071 -13.934,-4.538 z m 89.638,-18.433 c 20.97,-20.522 31.544,-38.074 40.099,-66.569 12.164,-40.511 11.218,-89.872 -0.572,-98.816 -7.813,-4.649 -25.618,-7.261 -46.976,8.25 -29.277,17.207 -46.274,6.864 -58.54,6.304 -5.677,0 -9.899,3.647 -20.794,17.981 -18.3,24.072 -33.335,51.955 -40.202,74.561 -3.103,10.221 -5.644,19.115 -5.644,19.765 0,0.65 9.019,0.602 20.039,-0.102 39.131,-2.511 79.941,17.412 89.431,43.659 1.776,4.909 4.504,8.923 6.063,8.923 1.57,0 9.255,-6.279 17.096,-13.953 z m -64.704,-94.851 c -6.914,-7.64 -3.441,-26.151 5.323,-28.35 4.116,-1.035 7.905,0 10.836,2.919 3.953,3.95 4.083,5.709 1.073,14.222 -6.073,17.156 -9.707,19.521 -17.229,11.209 z m 57.207,1.422 c -3.263,-3.934 -2.784,-24.518 0.704,-30.16 3.052,-4.936 10.913,-4.025 16.26,1.887 5.221,5.767 4.181,14.697 -2.987,25.633 -4.724,7.209 -9.444,8.101 -13.977,2.641 z m -13.162,-82.578 c 4.929,-2.153 11.77,-6.133 15.201,-8.846 5.834,-4.611 6.118,-6.087 4.337,-22.702 -1.053,-9.773 -2.758,-18.299 -3.809,-18.947 -1.05,-0.648 -9.278,7.059 -18.291,17.125 -13.598,15.191 -16.384,19.915 -16.384,27.792 0,10.91 4.02,12.094 18.946,5.578 z m 96.625,-22.981 c 4.823,-8.214 9.586,-18.978 10.586,-23.92 0.991,-4.943 2.482,-11.379 3.3,-14.302 l 1.486,-5.316 -5.955,5.316 c -7.03,6.274 -17.478,25.599 -25.861,47.84 -3.306,8.772 -6.031,16.454 -6.056,17.075 -0.198,3.953 15.205,-14.266 22.503,-26.693 z m -151.252,1.965 c -10.281,-9.533 -29.317,-15.412 -39.355,-14.446 l -8.685,0.836 10.631,10.115 c 18.404,17.51 36.796,25.035 44.617,18.252 7.177,-7.28 2.188,-6.213 -7.208,-14.757 z m 60.186,-55.127 c 3.975,-7.12 6.519,-14.795 5.652,-17.055 -2.001,-5.234 -3.272,-4.668 -16.545,7.403 -10.456,9.506 -10.947,10.657 -10.831,25.249 l 0.197,15.29 7.186,-8.97 c 3.95,-4.934 10.439,-14.796 14.414,-21.917 z m -1.712,-51.37 c 0.93,-3.723 0.95,-8.711 0,-11.084 -2.859,-7.447 -20.14,16.839 -20.083,28.224 v 9.302 l 9.145,-9.837 c 5.032,-5.41 9.914,-12.882 10.845,-16.605 z m -8.764,-36.749 c 3.615,-9.501 2.558,-12.557 -1.793,-12.557 -2.041,0 -4.421,2.879 -5.302,6.398 -0.889,3.519 -2.338,8.303 -3.23,10.631 -1.073,2.807 -0.198,4.234 2.71,4.234 3.505,-0.181 5.291,-5.082 7.615,-8.706 z m 136.732,317.695 c -6.288,-6.979 -2.473,-9.987 17.277,-13.623 8.369,-1.54 18.777,-4.641 23.125,-6.89 10.89,-5.631 18.107,-5.147 20.17,1.353 3.542,11.158 -13.019,21.049 -38.577,23.045 -14.849,1.16 -17.938,0.615 -21.995,-3.885 z" fill="#030303" transform="translate(110.33619,-111.771) matrix(0.26458333,0,0,0.26458333,-4331.038,-3204.3596)"/>
</svg>